<mxfile host="65bd71144e">
    <diagram id="ivVpAUd1IsklwtWTHd5i" name="Página-1">
        <mxGraphModel dx="1409" dy="825" grid="1" gridSize="10" guides="1" tooltips="1" connect="1" arrows="1" fold="1" page="1" pageScale="1" pageWidth="1169" pageHeight="827" math="0" shadow="0">
            <root>
                <mxCell id="0"/>
                <mxCell id="1" parent="0"/>
                <mxCell id="2" value="Usuário" style="swimlane;fontStyle=0;childLayout=stackLayout;horizontal=1;startSize=26;fillColor=none;horizontalStack=0;resizeParent=1;resizeParentMax=0;resizeLast=0;collapsible=1;marginBottom=0;" parent="1" vertex="1">
                    <mxGeometry x="470" y="207" width="170" height="286" as="geometry"/>
                </mxCell>
                <mxCell id="3" value="_id: ObjectId" style="text;strokeColor=none;fillColor=none;align=left;verticalAlign=top;spacingLeft=4;spacingRight=4;overflow=hidden;rotatable=0;points=[[0,0.5],[1,0.5]];portConstraint=eastwest;" parent="2" vertex="1">
                    <mxGeometry y="26" width="170" height="26" as="geometry"/>
                </mxCell>
                <mxCell id="4" value="nome: String" style="text;strokeColor=none;fillColor=none;align=left;verticalAlign=top;spacingLeft=4;spacingRight=4;overflow=hidden;rotatable=0;points=[[0,0.5],[1,0.5]];portConstraint=eastwest;" parent="2" vertex="1">
                    <mxGeometry y="52" width="170" height="26" as="geometry"/>
                </mxCell>
                <mxCell id="5" value="cpf: String (unique)" style="text;strokeColor=none;fillColor=none;align=left;verticalAlign=top;spacingLeft=4;spacingRight=4;overflow=hidden;rotatable=0;points=[[0,0.5],[1,0.5]];portConstraint=eastwest;" parent="2" vertex="1">
                    <mxGeometry y="78" width="170" height="26" as="geometry"/>
                </mxCell>
                <mxCell id="6" value="data_nascimento: DateTime?" style="text;strokeColor=none;fillColor=none;align=left;verticalAlign=top;spacingLeft=4;spacingRight=4;overflow=hidden;rotatable=0;points=[[0,0.5],[1,0.5]];portConstraint=eastwest;" parent="2" vertex="1">
                    <mxGeometry y="104" width="170" height="26" as="geometry"/>
                </mxCell>
                <mxCell id="7" value="municipio: String?" style="text;strokeColor=none;fillColor=none;align=left;verticalAlign=top;spacingLeft=4;spacingRight=4;overflow=hidden;rotatable=0;points=[[0,0.5],[1,0.5]];portConstraint=eastwest;" parent="2" vertex="1">
                    <mxGeometry y="130" width="170" height="26" as="geometry"/>
                </mxCell>
                <mxCell id="8" value="uf: String?" style="text;strokeColor=none;fillColor=none;align=left;verticalAlign=top;spacingLeft=4;spacingRight=4;overflow=hidden;rotatable=0;points=[[0,0.5],[1,0.5]];portConstraint=eastwest;" parent="2" vertex="1">
                    <mxGeometry y="156" width="170" height="26" as="geometry"/>
                </mxCell>
                <mxCell id="9" value="telefone: String" style="text;strokeColor=none;fillColor=none;align=left;verticalAlign=top;spacingLeft=4;spacingRight=4;overflow=hidden;rotatable=0;points=[[0,0.5],[1,0.5]];portConstraint=eastwest;" parent="2" vertex="1">
                    <mxGeometry y="182" width="170" height="26" as="geometry"/>
                </mxCell>
                <mxCell id="10" value="email: String (unique)" style="text;strokeColor=none;fillColor=none;align=left;verticalAlign=top;spacingLeft=4;spacingRight=4;overflow=hidden;rotatable=0;points=[[0,0.5],[1,0.5]];portConstraint=eastwest;" parent="2" vertex="1">
                    <mxGeometry y="208" width="170" height="26" as="geometry"/>
                </mxCell>
                <mxCell id="80" value="senha: String" style="text;strokeColor=none;fillColor=none;align=left;verticalAlign=top;spacingLeft=4;spacingRight=4;overflow=hidden;rotatable=0;points=[[0,0.5],[1,0.5]];portConstraint=eastwest;" parent="2" vertex="1">
                    <mxGeometry y="234" width="170" height="26" as="geometry"/>
                </mxCell>
                <mxCell id="81" value="bio: String?" style="text;strokeColor=none;fillColor=none;align=left;verticalAlign=top;spacingLeft=4;spacingRight=4;overflow=hidden;rotatable=0;points=[[0,0.5],[1,0.5]];portConstraint=eastwest;" parent="2" vertex="1">
                    <mxGeometry y="260" width="170" height="26" as="geometry"/>
                </mxCell>
                <mxCell id="11" value="Diario" style="swimlane;fontStyle=0;childLayout=stackLayout;horizontal=1;startSize=26;fillColor=none;horizontalStack=0;resizeParent=1;resizeParentMax=0;resizeLast=0;collapsible=1;marginBottom=0;" parent="1" vertex="1">
                    <mxGeometry x="710" y="77" width="150" height="104" as="geometry"/>
                </mxCell>
                <mxCell id="12" value="_id: ObjectId" style="text;strokeColor=none;fillColor=none;align=left;verticalAlign=top;spacingLeft=4;spacingRight=4;overflow=hidden;rotatable=0;points=[[0,0.5],[1,0.5]];portConstraint=eastwest;" parent="11" vertex="1">
                    <mxGeometry y="26" width="150" height="26" as="geometry"/>
                </mxCell>
                <mxCell id="13" value="data_criacao: DateTime" style="text;strokeColor=none;fillColor=none;align=left;verticalAlign=top;spacingLeft=4;spacingRight=4;overflow=hidden;rotatable=0;points=[[0,0.5],[1,0.5]];portConstraint=eastwest;" parent="11" vertex="1">
                    <mxGeometry y="52" width="150" height="26" as="geometry"/>
                </mxCell>
                <mxCell id="14" value="usuario: Usuário" style="text;strokeColor=none;fillColor=none;align=left;verticalAlign=top;spacingLeft=4;spacingRight=4;overflow=hidden;rotatable=0;points=[[0,0.5],[1,0.5]];portConstraint=eastwest;" parent="11" vertex="1">
                    <mxGeometry y="78" width="150" height="26" as="geometry"/>
                </mxCell>
                <mxCell id="15" value="Gastos" style="swimlane;fontStyle=0;childLayout=stackLayout;horizontal=1;startSize=26;fillColor=none;horizontalStack=0;resizeParent=1;resizeParentMax=0;resizeLast=0;collapsible=1;marginBottom=0;" parent="1" vertex="1">
                    <mxGeometry x="40" y="321" width="150" height="156" as="geometry"/>
                </mxCell>
                <mxCell id="16" value="_id: ObjectId" style="text;strokeColor=none;fillColor=none;align=left;verticalAlign=top;spacingLeft=4;spacingRight=4;overflow=hidden;rotatable=0;points=[[0,0.5],[1,0.5]];portConstraint=eastwest;" parent="15" vertex="1">
                    <mxGeometry y="26" width="150" height="26" as="geometry"/>
                </mxCell>
                <mxCell id="17" value="titulo: String" style="text;strokeColor=none;fillColor=none;align=left;verticalAlign=top;spacingLeft=4;spacingRight=4;overflow=hidden;rotatable=0;points=[[0,0.5],[1,0.5]];portConstraint=eastwest;" parent="15" vertex="1">
                    <mxGeometry y="52" width="150" height="26" as="geometry"/>
                </mxCell>
                <mxCell id="18" value="descricao: String" style="text;strokeColor=none;fillColor=none;align=left;verticalAlign=top;spacingLeft=4;spacingRight=4;overflow=hidden;rotatable=0;points=[[0,0.5],[1,0.5]];portConstraint=eastwest;" parent="15" vertex="1">
                    <mxGeometry y="78" width="150" height="26" as="geometry"/>
                </mxCell>
                <mxCell id="19" value="local: String?" style="text;strokeColor=none;fillColor=none;align=left;verticalAlign=top;spacingLeft=4;spacingRight=4;overflow=hidden;rotatable=0;points=[[0,0.5],[1,0.5]];portConstraint=eastwest;" parent="15" vertex="1">
                    <mxGeometry y="104" width="150" height="26" as="geometry"/>
                </mxCell>
                <mxCell id="20" value="valor_gasto: Double" style="text;strokeColor=none;fillColor=none;align=left;verticalAlign=top;spacingLeft=4;spacingRight=4;overflow=hidden;rotatable=0;points=[[0,0.5],[1,0.5]];portConstraint=eastwest;" parent="15" vertex="1">
                    <mxGeometry y="130" width="150" height="26" as="geometry"/>
                </mxCell>
                <mxCell id="21" value="PaginaDiario" style="swimlane;fontStyle=0;childLayout=stackLayout;horizontal=1;startSize=26;fillColor=none;horizontalStack=0;resizeParent=1;resizeParentMax=0;resizeLast=0;collapsible=1;marginBottom=0;" parent="1" vertex="1">
                    <mxGeometry x="960" y="77" width="170" height="182" as="geometry"/>
                </mxCell>
                <mxCell id="22" value="_id: ObjectId" style="text;strokeColor=none;fillColor=none;align=left;verticalAlign=top;spacingLeft=4;spacingRight=4;overflow=hidden;rotatable=0;points=[[0,0.5],[1,0.5]];portConstraint=eastwest;" parent="21" vertex="1">
                    <mxGeometry y="26" width="170" height="26" as="geometry"/>
                </mxCell>
                <mxCell id="23" value="data_criacao: DateTime" style="text;strokeColor=none;fillColor=none;align=left;verticalAlign=top;spacingLeft=4;spacingRight=4;overflow=hidden;rotatable=0;points=[[0,0.5],[1,0.5]];portConstraint=eastwest;" parent="21" vertex="1">
                    <mxGeometry y="52" width="170" height="26" as="geometry"/>
                </mxCell>
                <mxCell id="24" value="data_modificacao: DateTime" style="text;strokeColor=none;fillColor=none;align=left;verticalAlign=top;spacingLeft=4;spacingRight=4;overflow=hidden;rotatable=0;points=[[0,0.5],[1,0.5]];portConstraint=eastwest;" parent="21" vertex="1">
                    <mxGeometry y="78" width="170" height="26" as="geometry"/>
                </mxCell>
                <mxCell id="25" value="titulo: String" style="text;strokeColor=none;fillColor=none;align=left;verticalAlign=top;spacingLeft=4;spacingRight=4;overflow=hidden;rotatable=0;points=[[0,0.5],[1,0.5]];portConstraint=eastwest;" parent="21" vertex="1">
                    <mxGeometry y="104" width="170" height="26" as="geometry"/>
                </mxCell>
                <mxCell id="26" value="conteudo: String" style="text;strokeColor=none;fillColor=none;align=left;verticalAlign=top;spacingLeft=4;spacingRight=4;overflow=hidden;rotatable=0;points=[[0,0.5],[1,0.5]];portConstraint=eastwest;" parent="21" vertex="1">
                    <mxGeometry y="130" width="170" height="26" as="geometry"/>
                </mxCell>
                <mxCell id="27" value="url_image: String?" style="text;strokeColor=none;fillColor=none;align=left;verticalAlign=top;spacingLeft=4;spacingRight=4;overflow=hidden;rotatable=0;points=[[0,0.5],[1,0.5]];portConstraint=eastwest;" parent="21" vertex="1">
                    <mxGeometry y="156" width="170" height="26" as="geometry"/>
                </mxCell>
                <mxCell id="28" value="ListaGastos" style="swimlane;fontStyle=0;childLayout=stackLayout;horizontal=1;startSize=26;fillColor=none;horizontalStack=0;resizeParent=1;resizeParentMax=0;resizeLast=0;collapsible=1;marginBottom=0;" parent="1" vertex="1">
                    <mxGeometry x="180" y="77" width="150" height="182" as="geometry"/>
                </mxCell>
                <mxCell id="29" value="_id: ObjectId" style="text;strokeColor=none;fillColor=none;align=left;verticalAlign=top;spacingLeft=4;spacingRight=4;overflow=hidden;rotatable=0;points=[[0,0.5],[1,0.5]];portConstraint=eastwest;" parent="28" vertex="1">
                    <mxGeometry y="26" width="150" height="26" as="geometry"/>
                </mxCell>
                <mxCell id="91" value="titulo: String" style="text;strokeColor=none;fillColor=none;align=left;verticalAlign=top;spacingLeft=4;spacingRight=4;overflow=hidden;rotatable=0;points=[[0,0.5],[1,0.5]];portConstraint=eastwest;" vertex="1" parent="28">
                    <mxGeometry y="52" width="150" height="26" as="geometry"/>
                </mxCell>
                <mxCell id="30" value="data_criacao: DateTime" style="text;strokeColor=none;fillColor=none;align=left;verticalAlign=top;spacingLeft=4;spacingRight=4;overflow=hidden;rotatable=0;points=[[0,0.5],[1,0.5]];portConstraint=eastwest;" parent="28" vertex="1">
                    <mxGeometry y="78" width="150" height="26" as="geometry"/>
                </mxCell>
                <mxCell id="31" value="qtd_gastos: Int " style="text;strokeColor=none;fillColor=none;align=left;verticalAlign=top;spacingLeft=4;spacingRight=4;overflow=hidden;rotatable=0;points=[[0,0.5],[1,0.5]];portConstraint=eastwest;" parent="28" vertex="1">
                    <mxGeometry y="104" width="150" height="26" as="geometry"/>
                </mxCell>
                <mxCell id="32" value="total_gasto: Double" style="text;strokeColor=none;fillColor=none;align=left;verticalAlign=top;spacingLeft=4;spacingRight=4;overflow=hidden;rotatable=0;points=[[0,0.5],[1,0.5]];portConstraint=eastwest;" parent="28" vertex="1">
                    <mxGeometry y="130" width="150" height="26" as="geometry"/>
                </mxCell>
                <mxCell id="33" value="usuario: Usuário" style="text;strokeColor=none;fillColor=none;align=left;verticalAlign=top;spacingLeft=4;spacingRight=4;overflow=hidden;rotatable=0;points=[[0,0.5],[1,0.5]];portConstraint=eastwest;" parent="28" vertex="1">
                    <mxGeometry y="156" width="150" height="26" as="geometry"/>
                </mxCell>
                <mxCell id="34" value="PostRoteiro" style="swimlane;fontStyle=0;childLayout=stackLayout;horizontal=1;startSize=26;fillColor=none;horizontalStack=0;resizeParent=1;resizeParentMax=0;resizeLast=0;collapsible=1;marginBottom=0;" parent="1" vertex="1">
                    <mxGeometry x="290" y="517" width="180" height="234" as="geometry"/>
                </mxCell>
                <mxCell id="35" value="_id: ObjectId" style="text;strokeColor=none;fillColor=none;align=left;verticalAlign=top;spacingLeft=4;spacingRight=4;overflow=hidden;rotatable=0;points=[[0,0.5],[1,0.5]];portConstraint=eastwest;" parent="34" vertex="1">
                    <mxGeometry y="26" width="180" height="26" as="geometry"/>
                </mxCell>
                <mxCell id="36" value="data_publicacao: DateTime" style="text;strokeColor=none;fillColor=none;align=left;verticalAlign=top;spacingLeft=4;spacingRight=4;overflow=hidden;rotatable=0;points=[[0,0.5],[1,0.5]];portConstraint=eastwest;" parent="34" vertex="1">
                    <mxGeometry y="52" width="180" height="26" as="geometry"/>
                </mxCell>
                <mxCell id="37" value="titulo: String" style="text;strokeColor=none;fillColor=none;align=left;verticalAlign=top;spacingLeft=4;spacingRight=4;overflow=hidden;rotatable=0;points=[[0,0.5],[1,0.5]];portConstraint=eastwest;" parent="34" vertex="1">
                    <mxGeometry y="78" width="180" height="26" as="geometry"/>
                </mxCell>
                <mxCell id="38" value="descricao: String" style="text;strokeColor=none;fillColor=none;align=left;verticalAlign=top;spacingLeft=4;spacingRight=4;overflow=hidden;rotatable=0;points=[[0,0.5],[1,0.5]];portConstraint=eastwest;" parent="34" vertex="1">
                    <mxGeometry y="104" width="180" height="26" as="geometry"/>
                </mxCell>
                <mxCell id="39" value="url_imagem: String?" style="text;strokeColor=none;fillColor=none;align=left;verticalAlign=top;spacingLeft=4;spacingRight=4;overflow=hidden;rotatable=0;points=[[0,0.5],[1,0.5]];portConstraint=eastwest;" parent="34" vertex="1">
                    <mxGeometry y="130" width="180" height="26" as="geometry"/>
                </mxCell>
                <mxCell id="40" value="local: String?" style="text;strokeColor=none;fillColor=none;align=left;verticalAlign=top;spacingLeft=4;spacingRight=4;overflow=hidden;rotatable=0;points=[[0,0.5],[1,0.5]];portConstraint=eastwest;" parent="34" vertex="1">
                    <mxGeometry y="156" width="180" height="26" as="geometry"/>
                </mxCell>
                <mxCell id="41" value="valor_gasto: Double?" style="text;strokeColor=none;fillColor=none;align=left;verticalAlign=top;spacingLeft=4;spacingRight=4;overflow=hidden;rotatable=0;points=[[0,0.5],[1,0.5]];portConstraint=eastwest;" parent="34" vertex="1">
                    <mxGeometry y="182" width="180" height="26" as="geometry"/>
                </mxCell>
                <mxCell id="42" value="usuario: Usuário" style="text;strokeColor=none;fillColor=none;align=left;verticalAlign=top;spacingLeft=4;spacingRight=4;overflow=hidden;rotatable=0;points=[[0,0.5],[1,0.5]];portConstraint=eastwest;" parent="34" vertex="1">
                    <mxGeometry y="208" width="180" height="26" as="geometry"/>
                </mxCell>
                <mxCell id="43" value="Comentario" style="swimlane;fontStyle=0;childLayout=stackLayout;horizontal=1;startSize=26;fillColor=none;horizontalStack=0;resizeParent=1;resizeParentMax=0;resizeLast=0;collapsible=1;marginBottom=0;" parent="1" vertex="1">
                    <mxGeometry x="720" y="556" width="180" height="156" as="geometry"/>
                </mxCell>
                <mxCell id="44" value="_id: ObjectId" style="text;strokeColor=none;fillColor=none;align=left;verticalAlign=top;spacingLeft=4;spacingRight=4;overflow=hidden;rotatable=0;points=[[0,0.5],[1,0.5]];portConstraint=eastwest;" parent="43" vertex="1">
                    <mxGeometry y="26" width="180" height="26" as="geometry"/>
                </mxCell>
                <mxCell id="45" value="data_publicacao: DateTime" style="text;strokeColor=none;fillColor=none;align=left;verticalAlign=top;spacingLeft=4;spacingRight=4;overflow=hidden;rotatable=0;points=[[0,0.5],[1,0.5]];portConstraint=eastwest;" parent="43" vertex="1">
                    <mxGeometry y="52" width="180" height="26" as="geometry"/>
                </mxCell>
                <mxCell id="46" value="descricao: String" style="text;strokeColor=none;fillColor=none;align=left;verticalAlign=top;spacingLeft=4;spacingRight=4;overflow=hidden;rotatable=0;points=[[0,0.5],[1,0.5]];portConstraint=eastwest;" parent="43" vertex="1">
                    <mxGeometry y="78" width="180" height="26" as="geometry"/>
                </mxCell>
                <mxCell id="47" value="url_imagem: String?" style="text;strokeColor=none;fillColor=none;align=left;verticalAlign=top;spacingLeft=4;spacingRight=4;overflow=hidden;rotatable=0;points=[[0,0.5],[1,0.5]];portConstraint=eastwest;" parent="43" vertex="1">
                    <mxGeometry y="104" width="180" height="26" as="geometry"/>
                </mxCell>
                <mxCell id="48" value="usuario: Usuário" style="text;strokeColor=none;fillColor=none;align=left;verticalAlign=top;spacingLeft=4;spacingRight=4;overflow=hidden;rotatable=0;points=[[0,0.5],[1,0.5]];portConstraint=eastwest;" parent="43" vertex="1">
                    <mxGeometry y="130" width="180" height="26" as="geometry"/>
                </mxCell>
                <mxCell id="49" value="" style="endArrow=diamondThin;endFill=0;endSize=24;html=1;exitX=-0.007;exitY=0.762;exitDx=0;exitDy=0;exitPerimeter=0;entryX=0.5;entryY=0;entryDx=0;entryDy=0;" parent="1" source="7" target="34" edge="1">
                    <mxGeometry width="160" relative="1" as="geometry">
                        <mxPoint x="400.0000000000001" y="476.9959999999999" as="sourcePoint"/>
                        <mxPoint x="460.15" y="477.7999999999999" as="targetPoint"/>
                        <Array as="points">
                            <mxPoint x="380" y="357"/>
                        </Array>
                    </mxGeometry>
                </mxCell>
                <mxCell id="50" value="1" style="edgeLabel;html=1;align=center;verticalAlign=middle;resizable=0;points=[];" parent="49" vertex="1" connectable="0">
                    <mxGeometry x="-0.6354" y="-1" relative="1" as="geometry">
                        <mxPoint x="35" y="11" as="offset"/>
                    </mxGeometry>
                </mxCell>
                <mxCell id="51" value="0..*" style="edgeLabel;html=1;align=center;verticalAlign=middle;resizable=0;points=[];" parent="49" vertex="1" connectable="0">
                    <mxGeometry x="0.3686" y="-1" relative="1" as="geometry">
                        <mxPoint x="19" y="42" as="offset"/>
                    </mxGeometry>
                </mxCell>
                <mxCell id="52" value="" style="endArrow=block;startArrow=block;endFill=1;startFill=1;html=1;exitX=0.529;exitY=1.076;exitDx=0;exitDy=0;exitPerimeter=0;" parent="1" source="20" target="34" edge="1">
                    <mxGeometry width="160" relative="1" as="geometry">
                        <mxPoint x="70" y="607" as="sourcePoint"/>
                        <mxPoint x="230" y="607" as="targetPoint"/>
                        <Array as="points">
                            <mxPoint x="119" y="637"/>
                        </Array>
                    </mxGeometry>
                </mxCell>
                <mxCell id="53" value="1" style="edgeLabel;html=1;align=center;verticalAlign=middle;resizable=0;points=[];" parent="52" vertex="1" connectable="0">
                    <mxGeometry x="-0.7719" y="2" relative="1" as="geometry">
                        <mxPoint x="7" y="-10" as="offset"/>
                    </mxGeometry>
                </mxCell>
                <mxCell id="54" value="1" style="edgeLabel;html=1;align=center;verticalAlign=middle;resizable=0;points=[];" parent="52" vertex="1" connectable="0">
                    <mxGeometry x="0.7129" y="3" relative="1" as="geometry">
                        <mxPoint x="27" y="-12" as="offset"/>
                    </mxGeometry>
                </mxCell>
                <mxCell id="55" value="" style="endArrow=diamondThin;endFill=1;endSize=24;html=1;entryX=0.5;entryY=0;entryDx=0;entryDy=0;" parent="1" source="28" target="15" edge="1">
                    <mxGeometry width="160" relative="1" as="geometry">
                        <mxPoint x="100" y="157" as="sourcePoint"/>
                        <mxPoint x="125.10000000000002" y="267.00000000000017" as="targetPoint"/>
                        <Array as="points">
                            <mxPoint x="115" y="157"/>
                        </Array>
                    </mxGeometry>
                </mxCell>
                <mxCell id="56" value="0..*" style="edgeLabel;html=1;align=center;verticalAlign=middle;resizable=0;points=[];" parent="55" vertex="1" connectable="0">
                    <mxGeometry x="0.6282" y="1" relative="1" as="geometry">
                        <mxPoint x="18" y="4" as="offset"/>
                    </mxGeometry>
                </mxCell>
                <mxCell id="57" value="1" style="edgeLabel;html=1;align=center;verticalAlign=middle;resizable=0;points=[];" parent="55" vertex="1" connectable="0">
                    <mxGeometry x="-0.5665" y="-1" relative="1" as="geometry">
                        <mxPoint x="35" y="14" as="offset"/>
                    </mxGeometry>
                </mxCell>
                <mxCell id="58" value="" style="endArrow=diamondThin;endFill=1;endSize=24;html=1;entryX=0;entryY=0.972;entryDx=0;entryDy=0;entryPerimeter=0;exitX=1.002;exitY=0.931;exitDx=0;exitDy=0;exitPerimeter=0;" parent="1" source="12" target="22" edge="1">
                    <mxGeometry width="160" relative="1" as="geometry">
                        <mxPoint x="800" y="287" as="sourcePoint"/>
                        <mxPoint x="960" y="287" as="targetPoint"/>
                    </mxGeometry>
                </mxCell>
                <mxCell id="59" value="1" style="edgeLabel;html=1;align=center;verticalAlign=middle;resizable=0;points=[];" parent="58" vertex="1" connectable="0">
                    <mxGeometry x="-0.7971" relative="1" as="geometry">
                        <mxPoint y="13" as="offset"/>
                    </mxGeometry>
                </mxCell>
                <mxCell id="60" value="0..*" style="edgeLabel;html=1;align=center;verticalAlign=middle;resizable=0;points=[];" parent="58" vertex="1" connectable="0">
                    <mxGeometry x="0.217" relative="1" as="geometry">
                        <mxPoint x="11" y="12" as="offset"/>
                    </mxGeometry>
                </mxCell>
                <mxCell id="61" value="" style="endArrow=diamondThin;endFill=1;endSize=24;html=1;entryX=0.5;entryY=0;entryDx=0;entryDy=0;exitX=1;exitY=0.5;exitDx=0;exitDy=0;" parent="1" source="8" target="43" edge="1">
                    <mxGeometry width="160" relative="1" as="geometry">
                        <mxPoint x="680" y="437" as="sourcePoint"/>
                        <mxPoint x="840" y="437" as="targetPoint"/>
                        <Array as="points">
                            <mxPoint x="810" y="376"/>
                        </Array>
                    </mxGeometry>
                </mxCell>
                <mxCell id="62" value="0..*" style="edgeLabel;html=1;align=center;verticalAlign=middle;resizable=0;points=[];" parent="61" vertex="1" connectable="0">
                    <mxGeometry x="0.6151" y="-1" relative="1" as="geometry">
                        <mxPoint x="-19" y="28" as="offset"/>
                    </mxGeometry>
                </mxCell>
                <mxCell id="63" value="1" style="edgeLabel;html=1;align=center;verticalAlign=middle;resizable=0;points=[];" parent="61" vertex="1" connectable="0">
                    <mxGeometry x="-0.7911" y="-2" relative="1" as="geometry">
                        <mxPoint x="-17" y="12" as="offset"/>
                    </mxGeometry>
                </mxCell>
                <mxCell id="64" value="" style="endArrow=diamondThin;endFill=1;endSize=24;html=1;exitX=0.25;exitY=0;exitDx=0;exitDy=0;" parent="1" source="2" edge="1">
                    <mxGeometry width="160" relative="1" as="geometry">
                        <mxPoint x="330" y="327" as="sourcePoint"/>
                        <mxPoint x="330" y="157" as="targetPoint"/>
                        <Array as="points">
                            <mxPoint x="513" y="157"/>
                        </Array>
                    </mxGeometry>
                </mxCell>
                <mxCell id="65" value="0..*" style="edgeLabel;html=1;align=center;verticalAlign=middle;resizable=0;points=[];" parent="64" vertex="1" connectable="0">
                    <mxGeometry x="0.5706" y="-3" relative="1" as="geometry">
                        <mxPoint x="-20" y="13" as="offset"/>
                    </mxGeometry>
                </mxCell>
                <mxCell id="66" value="1" style="edgeLabel;html=1;align=center;verticalAlign=middle;resizable=0;points=[];" parent="64" vertex="1" connectable="0">
                    <mxGeometry x="-0.7532" y="-3" relative="1" as="geometry">
                        <mxPoint x="-16" y="13" as="offset"/>
                    </mxGeometry>
                </mxCell>
                <mxCell id="67" value="" style="endArrow=diamondThin;endFill=1;endSize=24;html=1;exitX=0.707;exitY=0.001;exitDx=0;exitDy=0;exitPerimeter=0;" parent="1" source="2" edge="1">
                    <mxGeometry width="160" relative="1" as="geometry">
                        <mxPoint x="530" y="157" as="sourcePoint"/>
                        <mxPoint x="710" y="127" as="targetPoint"/>
                        <Array as="points">
                            <mxPoint x="590" y="127"/>
                        </Array>
                    </mxGeometry>
                </mxCell>
                <mxCell id="68" value="0..*" style="edgeLabel;html=1;align=center;verticalAlign=middle;resizable=0;points=[];" parent="67" vertex="1" connectable="0">
                    <mxGeometry x="0.6214" relative="1" as="geometry">
                        <mxPoint y="10" as="offset"/>
                    </mxGeometry>
                </mxCell>
                <mxCell id="69" value="1" style="edgeLabel;html=1;align=center;verticalAlign=middle;resizable=0;points=[];" parent="67" vertex="1" connectable="0">
                    <mxGeometry x="-0.8977" y="1" relative="1" as="geometry">
                        <mxPoint x="11" as="offset"/>
                    </mxGeometry>
                </mxCell>
                <mxCell id="70" value="" style="endArrow=diamondThin;endFill=1;endSize=24;html=1;exitX=1;exitY=0.5;exitDx=0;exitDy=0;entryX=-0.024;entryY=0.09;entryDx=0;entryDy=0;entryPerimeter=0;" parent="1" source="38" target="46" edge="1">
                    <mxGeometry width="160" relative="1" as="geometry">
                        <mxPoint x="500" y="637" as="sourcePoint"/>
                        <mxPoint x="660" y="637" as="targetPoint"/>
                    </mxGeometry>
                </mxCell>
                <mxCell id="71" value="0..*" style="edgeLabel;html=1;align=center;verticalAlign=middle;resizable=0;points=[];" parent="70" vertex="1" connectable="0">
                    <mxGeometry x="0.606" relative="1" as="geometry">
                        <mxPoint x="13" y="-15" as="offset"/>
                    </mxGeometry>
                </mxCell>
                <mxCell id="72" value="1" style="edgeLabel;html=1;align=center;verticalAlign=middle;resizable=0;points=[];" parent="70" vertex="1" connectable="0">
                    <mxGeometry x="-0.8598" y="7" relative="1" as="geometry">
                        <mxPoint x="1" y="-11" as="offset"/>
                    </mxGeometry>
                </mxCell>
                <mxCell id="86" value="" style="shape=stencil(lZ3JcjQ3koSfRlcaEjvOs7yHzFrdknWPJJPUs7z9AKMpsuie/xesmxaPYiYSCMTq8V35l99//P7XH77L6fc/fvvl7z/8109/+ePH78q/fpfzTz//+MNvP/2x/+m78m/flX/56y+//fC33375589/+fPff/3+IM8//ccv/3l+4b//lLvernmEcvqfP//DeOvX//2Hf/8T/o+ffv4Ez03gqxC8fIbPt5IRvgTe8NdrFvhoCK8CXwvhn599vWV8doP//5/7KryPl+ALP5PAr/R28dIYvkzEd8X39Bp+8pcV/PWWeHkMX3h9DN/4axl+9Ffw+S29tD75Lb+yeza+vrKXN37wen4+Kld5S/y+RfGV3zcrPji612d8fbv4+ybFV3xfUTwbP/F9y2etebWHYvwyvrMiHJ/x/S0xviu+vogP3lf2z3gruD8dz+dd8TM4v46fuN8Uv5U5npdSFT/4fT/j89a3r6znxjfeP4Zn/S/f91zcvP8N3/l9h+IX//7n/Z9ztP6G76+cx1yi8zIUX19az/I2eX0EX6P1b4of/PyCb28Xr6fh2dzQ5+9v1yuG28Y3vl8+6/9tR/L3kvtr41m/1an4id+3fb5ftm2YUZ+0pnh+3zYVz+elyXquwB7rSfF8vwu+pIcf8GU831+K3/Yb6jd5341vvP6Gf2k9S35YXF/Gr5fw5bEDv4ivgX3oeLb3FN9e/P328u+zL6X4Hthjjn/t+45o/T/r/zLfEupzOe8bz25yk/2/AntA9FsJ7Y3P+JoCeyxXxS88j9dn/VzZP0qPr/+Oz2ifb+/P8HS/p7ch+IL33cZfih9gf25t9tl/qRX9r6T7Z+MHvm+T3+f7Oun+qXxfJ/Ufa0d9ntRf23h+fvGn6sBgSFL7auPJv0tqb9R9/+Lz6/6fjx3yRfx68fdXsH8E3xLaS/a+G195fYbiKf6Q1B5ufP8mtd8ax09sP2x8w+cR/33jyV9Lah+2jPr5Dl/494vig+c3PNn//jwF9f8dnu7HO3ywnrL+NXqepPjG+3kpnvxT358NA8O+/1t0HuV8bX2I38vxvB8Uz/6L6we2T+7wi59f8PPxRb6Mp/iMf6+tP186L+ut4/PUz/unb/2JzyP22Mbz9+qf93+/0B5Oj9v2CU/+QnpYa0/4hfthfj5fPWP8YeOz4sl+23hZH/ZHNv7z9+3bH8HnWZfiA/tQnqdhPHnjp+LZv07yPPu8o7+TquI7xieT7IcRxJ/TVDznR5Ls//n4L1/Gc/xQ8SuItzi+8fsanv1BwY93jfFl/OT3/ayfRxT/lP2z8QP1g+znkYP7VPydjaf4yXt27B1fMP/1bg0+4Slzmh5v946Pznuviqf9Zv7UaLifN74pnv1B0c+jY7zO37cH9vOQ5x+BPanrPzCfYv7smIH9L/p/7POL39fxpN/sPprpLeN+GEPxwXpK6v3C+L/57xvP/l3/rG8n509tv80o/tA/r+cswfo7vvDvV8WzvST7f9bAP5L9v/GUn/XvVQP/QvdPC+IDYm9sfMf9v+R9w/u9K57z+1dTPMd7JZ42RxCfL4an/Wz57jmD+Hwdimd7oGXFT47fynpu+x/va4nHbnzD3xf7fOPJ37n0fK2E+vkOz/lNub/Wu0X6Lfzn77suPO/XQ9s84bmepH9ez5XRn70e2cMnPPnv1yM694Tn/PL4fH5XwXja9ci+PeE5nztlPSvq2+tx2z7hef3nUDznQ1dWPMfPxX9ZrA+z6qvF+Zd3a/MJT/GQ92z7E57806z1P4vzv1nzfRtP+6Govb043lI0vr3xA39/2PNMxIs9v/F03utD+73jB9rnVeMVG38hXvyFjSf/pWlZ5sYX2J/N1mdgtWJ/7N4nPOVnu9oDBw/PMzTeePCw/vMRzX7Ck389b96X8ndL7+uDh/2/HtbCF/FX0gs4Erge/vrXBaptIUxZXo8b96t/IWsQ8QjQpZTtlhmsdYumIbcAlsUUtYOOAN1LRR3tLUCK4tQdyl+Y6Dlf74GxJwFMBddHRfWTQKG7r2lwfAtg8USz23Lyd+ga7l4cLt4CK6kAxoOG1TcvNnDmwx54EsAIz9QSnBWU1KyHh/EkgDULS5PCW4CU3vZq9Ewv1GKe5j0C/BemvTTFtT7KBJ8FYHvfWL4Lj+gxdezDBQK+NQIB3XyBQDFtHwqoORsI1Ed261mA7LVqBjAXhOR29xfokdrdO9CX7mZDrkfU5VsCw96BjP48zMrgqNXpVfFHou09H0rlq0d0mmG7ULduSyDZiSOtsQX0fuDGkXKnNSh3tAWafWnSfOU9N/YsQI9k5U5HAFap5Jt3QH8h37wDBfhOvZ59B6q4KW46LGyZ2QLqEy6MSZ2SPXsHSoJtAf8LFOU7RXu2lyjNear27GKnuFfpN9bMor8wHnncL5oOZVjoYmIpa5lmhk6MnW4Bdfa4mK8srd46Bhbo1prMdJh4pqvFr4/NB9+hXqbuuWFiC/iXphNXs4bwjgCch1rMB50YI6x+gCYmHWo1AysQaOamhwJuGaNAN4ssEBhm/oQCegMFAlNzpYtr2bfAzZcmAbeMQwEJ7wYC7e4AUfy7pZtVogR9u270EqnK5iFYTvG1bKb0QL10SsouFaCik1Zu/gJFlbaAWmQd2yI+qsSeBChv9FEm9hxopJeu9tINLbLWbkKldCluAV2liibcFlBLoGCT8xZQH6hg9dUpXpN3yHgpbgGNV2eOBza74y607ls3i+zCMMUpqJMPxy3AzWOIiT9cf9xoD4HJpvQW8KwZBXNOkV9SAbpFt4DmdQe6Zc18oBkc0W6Z0Y6R0C0gpfeTW0Xb0Fqm2dA42QLiNM2Kxa9bQCyBLZD5kSS+NAumA9rQa3dm/tLDEpiZb6BhGfkLK2q2gJYsJL4fxk0NBd5xQ2MCY0WPpAITs3ptWNnRRD+uDdXeY2BAqg1NHA5u7GlDY8ajR3tJ/IfRWGtYEGFw7+URsGIrSlb7XjrVXPylVSDerfLhrujDqUDii90ETkUgb28VmHwDucDAGr8bAU7a3QoEJ04FQlWpAhXz+rcCVPh8I1CwMvNGIKPHfivw2l7qV3iAvBqbl1Ucv56wXeAIfFYCbWH9cBsaOTkF8cGVZRX0wZkWX7SN6MSJH3eMCToPXf3poOmhdTVDjyVLm8/Mny1AMbJjkVlfSGCGaqNBxULBY1XKOxTe3l0TeEGrTevqi26BwG6V5HTLWPx0BC4VQCOxaTlc0E51BIoKUL3pEbAGL9zeTe3W45KzDyQlDluA0pzu0tTFpkPXIv/K6YTzpe0voOazlEidfAN1zWVVzryeE2eNkehadu3M2ALBhZKttTMwpeVM19jms2ZQjGtMdS1Ptyk90tR2uC1A5UpbQNyyGpihS52mLYD3w7Iv3fk8LHXxjwCV2LwflycBcgd60uBm7VzEY6wqJ9wJ36FbCUnlNv9tWTRbJRQoGkSIBaa/AwlUpQ6JBJqpmWCVmjWPBwKul0IBccsigWH95oHA1Fs0Fpj+4UBrfDQcPQuA6bAdGFXG/VEYcy9wqUV2BOBMHyfM3oGicNvNU93Kzuuw6qKgj39YhuMIgBIYFiOrHQPlY2irwRYgS2BMNR1qx97zsYw8gmPG02rhakObb2Y1pbcA5RRn0exAZb62WdVI3AK0vWfTHPtJVsGluAX0AHEL5TRjvVb0p+ewrVHRXppTswNbgNzjE46tKkAX+0fA90mAXJplxRGVG9uWFWLWgp0Qy1o7D7UIfIePwPuTAC3rynbtFrSXVrHtXTBVu4qW524BSn6djIm8Q0Y/brle4gbnkyaqKkBqZlklQr3wTK9hW4N9oDXsO1yoW5eF7WpCj30LqKpMeB5OUtN5gmhZpxIzFC4hWfOGGYncsmWmdBlYHLGmWmSlcy32UlVZWBkvq8EqNfwLIlCwXWwtzeIfPjH+cOK8lgsbns8qyXdIaM2c7yAUc1y0tawm/pAz818QSyAg4TsC8kg92hriKWZuC1xma5zCSVrWpcZ65saij6qxd4GCofhlrQM5Y07xVO/JKl3o4q9l5IAJPZSPOs2HwMVVjx+VoO8CEyO6H9Ws7wLM93oj0DHH/lH++i7QsFLto/z1SYDM0I/i1HcB5sg530GWtaA7sMyauTIWYp69ZLTTZGCtpR7KxbworsiYp+WoJclyYh/ZuU6Ucx2v0KnFGswzvIYGNjuGWj/ait6jjmgTn4IaxVPAe1lIvWJ2ZuNFWxTsK/xo2/vAB2aVEpVigPLYbaJQsaVnG4ZyTWX+XtYNwzyBG59FE7GaKOphBEZhMeJy3j9Z1//i9c/+/FS2vC6tebnQyVsW9EgYvN0OleznhIp9+4RLfx/78rraCMxrN5umbxLWvW7HXIiNEqaHtudf9XmoJnVeGnpmHoyx/H0Rb6Ftfp7RNcib0LMbVSPh3Bc/sv8+rf9Iaikzb89J4SfBY8i5aVo1Yd62Z80iJfStu7n7CXtY2vT1ob6dk3MyPOVGrJOIeVTapXZTQv1Wb/Yn4i1xnjCxWK24MmFp2HbqbT+QvqrJ9RWV2nj3wIXhn+1J5ql47kOZqp+xScSI9i48v3lq3OTCPu7cdf05puGN6MzbecwF/X1s4bJOIObtyVbozff78UOEmJ7nwliykguptheS1V7CgUVNO5Qzrv92KUR/ZuZpKRpizdypaz3ZmXlFLiVCysyrZqF35iG8jKiUeZOWmm8FW6qWnt6C2RKLeLC/Zo0UBc+i5dAKRkesWqcg40fXD8sRqqYEY4WLs1XtFNxmVbUss2tX/0x0qRT16QpWrRaLuuIWK0Y1jXvGDmBlhWy5LPT/7Dp896e+Ae/qjZL2y1r03HC/ZyMJ5s5VzZE1rIi41FLrwUQyUUxcq2AE+v21eUBcL3LpBuYQ982QPOSU0DuK47A2i2AGo1CUiiuYjCCNVCGRmLQrRHMRNBwUTL2TEnnMdtyMDwyGKGgsi+E5KxwpqZRSDiNrlxpCMyAo0yaOiB/X4K/Q0XL76s2rUgD7ZiFJpb5Xsj/BeZSYnSaeNKgrw8Rh0go8gzl3djx47IwfvteONpPsmeKg5IqZ8hOpQ+6GcfJn0oUMDp8+e3D4THHgs78ET9ZigiUDN/CXZp2MgGpde3aCSQ/i0PVAz0j8sgc8i1UtDqbRlP3OZTmX1RjjaTKSvBZw2MklX9EVzTYShQlabAIMHu2sTUkV/VCjvOEymaL7nbMORQ2UyH6f5kwwl14WOIWYq9rABReyaf42qPbXdjOeY9qVhqHgZWPNncyaaaRYBasHjRSvoIU91cJmivGlLmLGiumlgbLMBLM2YYI7oi/TY5kHyBrDbObLL6txyANiTqBG8UgWVq0QgY2g5oEjHBDcVXFn9nBsr11M2DY90ErdrofrTAOJSE9ldtmFWuEjDvUUCKXnMaKCONBqgVxS99MTf1GgWBOXdI2Xm0A6qvC7QD2FPaydOUgEJL1SEl6Hd4kAvCRuEoWU6LlLZJBtfJcowfbWm0QM4q3kMsDfJJKQFmPqTZSiZpCm3xfr97NeXYmjm033M5ev9aFWLyd2h+mTxJX12deHzuMwsq6EAyzuErVUZ3kSwbofiLXhLtFMFbt3iWzEZ7Xx+HlOIl7PIyXOTqJffx+Nk66xek58T+MD5f02zZxJXKhjibyEkatlvVOcGF3G0H3h+q+i9sPFZYlFYwUXF3tWLbrlROHhW9ffJ/2/8VoAGBU+uf1D79v0/Gb+vs1KTzESv6wnq3CVZ9dYPA8QP9Xq6tFhre2wiYBszRvVR0Oi5FN5ruH7oJRX7l9u4TyFhRptwvJ/a8ic/L2WRhGZOderck8lJZdeSrvNdfEX84rWjKHHZcnRU2/KAlqsVrl6cSlpZlAze6VkaiKI+NxIhJW/klK7Bh8df4uwell6Ty5mizhfQrLyCZO3/q2jukFjzIsKK63f+AQLeFnlQJy8Ke8mLUXgfjKvLc48xPhU88sqhUpGBcKOBI0acO7hpl9gYSDurJIEv7iizku2S6g3xFIoHGo4X1quqrC7RQVq1HAjzllhIpEPat13AQ5D3/QADbZHpgUh4+4WKT1ZaPGvqQHg04v1UvNWDbbGsN51nnro1e2Vxx4uJ3+4sE5kdYtLX1iQtwWUOCHzpdWsPoPZU87kHuscxA7OYhQZXDa0ito+pyGTjXkdx87jjpbNU6qF+2cs5XrYdLlQXFIttbKBlayptGJp8zQi8y1AV9ac9h0qxiC2QLa/QFpjOq0Bt4cdr1MeiclFp/HkxG3ceh44iTWNgrVyT9wsWjJ7WI3ppa2Q57TT03e4NNFQeRrfTEpwdAQomuJbo3Pd+x1LAcaPulHGdHTgDtOC0XxQrmdU+w4du70OW4QzXtBfyDePRAdoWBY9oIwZSbMgR4DCeEaVXjuaDt0pATqqylvmESqsueU2QYE79pRAwPlZUOCOASYQcI4ZFLhjsUGBO56cQEDs1tqxaOKW6wcFLiP86lj+1W1qZu0YhOrphqqETLieLOnfmbjZfNHamZ7OHL8akFouTezUgXZrs1b0w65FpcRmGVceduq5iJONoVWy4O2hFGMOsmHvEJDtKpHIxPjYDS1aSA297C9ghXY3WjQedNG6bQ2eH9K6vfRCH6jZnK/K7cA37IucZmhdl7UlNBJbtwbcgFewq7HeuIXSeckbN1k3SwU3bnJp1qTTeFq8M58fBsmXPlwr2PfUuva9NnZpWjdG1cLsvF21xmHyZAE501uALAGnSj9spAGjalYB5Fb37u/OutVZYfnKcjLF8xMBW7W8w+TtPTSR1iZzhRpFdwuZnsWE64lVpcU1Dv8vc1TKPR0zDKtAyGHsAgFLsgqEPMwqEDI9u0DAJa0CIVu1CoR82C4QMG6rQMjprQIha7gKhLtVBGLmcxUIudVVIGRvF2835oeXxE7MQC82X8xxL3ZrxKI/1cWPePqnujTRJICpkZNo1oD170XTDKw5P5qXYEUcY7HNZy99Zj7whSJW5ZkqwfeDbL55ceHQUF7BmcMBC0UFgqkSOjSFK3wPe7s05gSmgzEXngklrASkOmlyFO5mpAmTWt4MTeFASLOE/xysNXxSzIj8Bx04wq0xzcg8Jg/7a93aXRbmRVvXMMVK7JZ1m3WceFl9aunFd5yPKboiygedJBbYGlbad6Y/0eazIPMKjPVmMxQLT+FqNrar8i3arJyCmytas4ntDWP3rd7MKsOJbtW2Bgc3m/UZbwHKoXy4SO8Cgw9QvhupTloj2zsEZOyWOFqBO3CpAx6MEzzuto11xJdONhhsYq3D7XRAyoDfzh9EgbsJh4GAz1BEgbspjfjSd3MgUeBu0iQK3M2yDAR8WiYK3M3jxFW6m/gZCOjsvokpkZrv9hIPUtU5wROvrDN51SbgBsNghy0r6daaNJ2wuBe4GBHh4oKnYtUUi6fdFKORjcf+6oRDnoxRhqZ1TskHNTSYrXGKSugd+s1Ua2R+8DmQC0uqzrzmZgJgzZR6M68Z52YXm+IbTOYud5O56aWL+nGnsoxeOt/NL6eXzuoDrYWRk2I914u9rHLd/QV66XTzDmRVnhns9qWRF2mZquTI+hbQW3Rxw5RlaY4AU01ddoAoMJh9MvfCQsw8ND99BKiJy9gzT2kmPZIFyj9qXu8FmpaFHQFapaZ9HYunDuWq0dCPetRvCego74XGejbOuKei2m9JaHNZJGENxV+Q0AbCWEJMoFDi0klz0VJdNzsQv166+3q0P4zg6uxxapxcGtE5AtTpaoNQzsGmEmurWf0ggL4XmDd/AYkkLJz4US7/LYFiAtju2rUd4FylRP1iSbnFydHLfWQO9m2BbALYclw1obUCfo6qWbzA2r2KlsYfZ46+Q7Eh5hMzkVtAHVL2L7eA3oyDG4mzltx9cDp/S0A1MtNvXJf5+VwscBkh0+KOA2fFiwSMhjQQWGb3RfibNaI6Rk0ShnhVMYy3URqL+eEtVLkGDqq3KoE1OCWvIek1OLdmMb6B5pt1t62BvFgeuxpoExt7wBroqhcLpg1M0RYLNnAw2koXFxchZdvPnPzJtj+57ipbXLlj60m224MrKbPmojYeFa8FPjqrUe2GXhG5npCifBC/fwt/KZ481cvcl4pGrbtsNSB6UwesRhx49vvYqGZuMHPSGPvExmek1lJHPqMfYpWKK6NLe5l+yAF7ogapmAffqPAWtwdfllVJfMvf4APaKcMz75TgJ5vtRug4V8BbqOm/hRlJp7jjORmXFq1tPEUsLssuchTf+f/4/k0aFZ18v6SbXCR5csZxNrmuPKndOnnMoXW7zIbn3dgwDl8BsqhJ+dxJOMP3NXajye3cxjYwuTnTZsHOEjDYScxhFmxF8+fh+kJ/X54jYl70KULA7yvBhnlh4XZSe2BeeF/7fmAe/2S0kAntpaS18INHUydlDxg8xs2eZ3AaJKnHMwaWmSS1Dwfbk3ZeRkd7O+n9ODrqN9tvowUci3KfbjzZq/77FXPLSe2BwQn4pPbJKEjQ6vuhBKyP4u+MjH2eSe3JjSdCwaT+xbgCfascl9eLJJfcCXuHp0iK4TsHFu/w5K/d4YnexfFMw5y0iKvPYD8rnv3TpCHnzoTZSf333gP9Jvunc7FH0qBR50pu28+d6VGs6KHXYP3lfG08f18pSOjM/m/nvfPcBdP/G8/7X/ydzm3dpp9P7xWuv9gPnemNbKxV57lTSe3tzvRSxlbXeI5q0jEfjTO7NiapzcDedjxRaDt+BN9L7P9TMonr6Xj+XorvWOOQHtbsE57vF8U3LMqz/OwpWOPnt2YVSgYkTV01pvO1sdSNZ0taw3Rjyt07PCXhjYSnleh5BJ8x3nuHD/aD4cnf9/fNgT2s639F62n44PmL4tke1v3JdJ++/3lOmJ9HnsPn+iQF97sOQV/ReTR8oD+FfGJiPP8Oz78vFYR1YKdw0njL6Znl+8IavNkf127T/viFb+GNsoH9HW0Sblj75H3/FfMdyRpHmSzE/PcaxSuUVqAE6yOFAqcwkO1Pw7N9KLWV9Qr8NW0OTkE8UPdz4jlkmv8qfB6tLqKsIJ4s8dIy0X+0eHKZ2OFn0yAK2yeO5/zRHR7puQ3fgvi248mev8NTvNTx9cXfry/+fnlx/XMw6EF58nMwCEXxV/R9Dc8DbhzP+SPFc9vJHZ70rZ2XzFxid3gq67T8SOZy3Ev7+sPRMjocIMpH6JjpEeQ3Rb8dor9Xhi/lEegfHePYg/yL6OfM+QjLvwRUiHd46hN0PPd3XmpPnikc/DyCZ/paY4gK5pRbxe4ZRsHPL/iM9s8dPvN6yvNH+kfX54rGdxk+WH/5vomL1W7wXA+g7MqJ68IUf61gfJNOf1jR+gueSQvu8OR/OZ7zoXd4qru373sKGnk9Dc9D/WR/bvxL5+Vqwf3leM53aykvN+BawdzGsz0m/v5hMubvK+XLJcjfKccwz/2x/Pipe0T/S8coZ6zHuMNzfFjqqS4eD3OH53y94q8g/uB4qm+5w3P8xPHsryk+RfUPhud8mePJHvPvG8WrtWg8CE9qeR1aGzdwai++gWfQJTdwLh2Q2vIo8iNjZZnm92ZaHuf5NK8ZpTUNzlEHnRNLRrYl1UaUE0wKx8809dlZ48i6RwmFZb/O+l6fPYDrQrL3qrQdgbN46Z6h3P+lhK0jGM0qrg1nYkP4/odfv//jxz//5a8//eMfv//x2y9//+H5///1l99++Ntvv/zz57+8/6fff/z+1x/2v/0v);lineShape=1;" parent="1" vertex="1">
                    <mxGeometry x="16.253125315626676" y="46.23133280385946" width="377.7686970790862" height="485.80420088033816" as="geometry"/>
                </mxCell>
                <mxCell id="87" value="" style="shape=stencil(lZ3ZcjU3joSfxreKIovr9Szv4Yj+u+3oHv8O2z3L2w85nqMjZVIfpDsvyKMqFgliSQA/3P/y+08//vrth3z9/sdv3//+7b9+/ssfP/1w/+sPOf/8y0/ffvv5j/VPP9z/9sP9L3/9/tu3v/32/Z+//OXPf//1xy25/+k/vv/n/oX//hN3vdS0Qfn6nz//w3i5+//9h3//U/wfP//yTrxdIj4yis934vOl3iTek4jP8QXxdL2UivK3ys+E8uW9fHopF8o3lR8T5d+vTsovN77vSCo/WF7e9w4+7qgqPwrKj/fy5SXz70+V//8V+6R8fcn8viY/8PuqfHu5cf+4PO8fXZ/+UnA/jP5efrwkfh6THywv+zM6jiK//kvm960qz/tf1ienl4rPP9/v/5xfEu632VSe9lt6ueT313mB877km8rTfksvSX6/4H5e8k3lO/5+fq+cc8XvteSzyk983yzP314aPr/K98dt88nnX5cR3C4uPx8r9tF6vj+/9/X44p+WH7DfXD69NNCf9vx3fslwXmw9lzzdvi4f7WfZD0u+4/vm9/fLXR5v9JF8UflgfUS+vly8PiZf+feryk/cP/r7De0NX891X+Dz6/7pLw30s+mHe50X3s/yvebLhc9/TZUfX9GHZVmXrG/fr2dJwXkX/Vwy7ofrsdpv5On5l/z7+7TcLwWt2/l+/5SC67nkb5Vv/Pvv90+pL+kr9s+S7ywv79uC9xV7oPSX64vy7Sv2Z1n7me3D9/ZDmcHziP2w5PtXvm9d/gXaS7Lfagr0lez/Jc/3u5zHmqPzXlV+sH57v9/qjf5Ielj7b+TJH0mP2+dVvgTn/S4q31Gf3/I8fF6W/FR51rdF1qe9XPj7pap8wfu0yvr0x43zkXxWeb5PqzzPeOzAD+RbUnm2n5v8/kT/JWl0YMk3vF/E32/LfsP1FH9/yZO/k9R/bwn1SXpo1zfybN+K/77k2d4Y7/d/y6ifk+qrdr8k+L5Z/ZElT/r5Vdu8ypeXBM+TX+pU+Qbrk209y+MG/EBe/LtWHxbUUf5We2nJV9hvr9rvjTzZw7eel9bQHrj1flzyN+zPtdqXytN6FvteDeMD5RGdeJXveH+Vh/f3Rp7uo2Lv2/E8Lmv/VnnSP1X9qbb0G3zfau870J6vtj8H3nfVzuN8fMGjfLPzOHE/tEf04I08+Tuvt88bebJ/2uP/vpGneGxT+6dfD4viKN/VHljyFB979YbeyJN92x9P+yqf8L4Yj+jfG3myT4bGh5d8hd+f+n17wuefL6WpPOnDV+/sVT7z/XU91PdbABms6/skBdCOXoDWvwgQHykCpEcI8LPv8BrDfwsgK87MoA0gsyNp3H0D6J7P6jhvABlOr3GizwOqvwOZflltoQhwq3MeA7J/OAbU8kXA4TvQKhUNkEQfrqhGjfZSeQTsPrtbq/pw0Xmo6kT0VzPvI8CwL01WXWoaBtsAMqvb4QCRXbrTKq41CNAP5wEfqWseM3rp/oiMfxYw1BiJvsNQayT60uOg7vGlp9q/nfMnOz1k3yHDX8jXQQlQRHsBylAApVg9RrcAFb7DdsJttzY409uLsnegKPt2i0xrTHKjsvqxPfDT7ofaegOgQL57LgtAkYcF8Eei0OSy5SV2tQAddOt2RroCKDm4c12iKgta87lqeKwXPEBu/28AaO8FGAagAE1utjUKn4dm125Bl2rZuNlWiWzWbUQPA9CZHnYDhYDmj0SAaXspBBRb1gDQ7cMR4L7MEuBlvV2R8Ye7Lfge/YVkd1xBJbAA6p6szQea786az9sAWqX8OPJvDxAFYO7HA7wFwAF6JiA/eabvcvgLZMLdxTRfwaTwXW1r3JjV20nIrwKmqXvyu+9mjmsIUDUTALp5WSFAYn8xQIMHAWCYLxoC1PYOAPNwHnBrzEf4/S0Atne5zPEr6D8Uo+v1gjZfsRzWBoAlUNw95juuuLfLiqxkTbsvQKGwYda8Qi9ozRS3lwoGGnee15aVIjkL4Pc0hmKLxX7K460+Amjwp6DdugDqDhSM7hVXZOVxTX4EUFO6oAm3088CqHiASnvEq94AcHu3x1Z7AyADawFUL1WMOS7AsHfo9EjdznRFdb8AEsbtQRqgm63RMG+80+7y0h2JOgsgmfXOkfcy7MQNpFIugHCTFoCUcfHg7OQTN3SVBkejF0C2xrj4PAw1pUfiD2cB4wWghPwGyCNlZPAugCjjwRThDXi/W8fNynjo1liAyV9a/OlRHl/mQ4C8w2si6ENAUwBq76GJgcGJ/A2YCqBM9SaiCE++Y/TnCCAu7AYkBeABmqpbx8BQSzG3bAGIDr4BsqyTlfF8GP9vAETwKGaRzYsV2VQKybwwxb0AEtGdCeN8CyDe7uQk0OYc2V/AAzTVhJsZHb966bJODnktgNyiMyMxoZoZOm80EqtXdtyYeq/GfZvMRa2WB5pse1dj5ywAXVnV/OkFILpQzXopTuYz1Ky296zogC+A3A+zckb9VorpAtAdtwCSc52sKmvRKNwC0JVVi7rHC0Chx1pVVU4uw6iWEpkdwxS1qrpfgELnoamxvgC4W5tt78HL2h9MyDcA4kYugLgDC0DksDo0rTMHL+t4KJVXwERjvU7lcywAKrJp52EiAaq6bp2oZtqlKZENgGXdDLJiAOJEXJo42gDYfC2pOxADxD2OAFktgRigm2+icbIAWvc3kRm3AHriJp64ZpHEOdGaWQBVM6+2wUcA1a1szbRi6n6i9m5F+S/7ANFeKo+9+RZA38FiAnNivLXVB7Phk2d6AW576QDQ/C/wI/nWwJduSnuLAc3ONNURLcC0I0pBtc2LsxOHX9qyNBFgqLG+AbRbx0G3kindhoa8IsDUxNEGkBKYh+2dQd13SzcHJ27zy/wvMMC1NwKSZvw2ALZ3N5JyBMhK2ooBxfYSvkNWnnL0HW6NJAZf+pmN/jxg+EvD5ntmcj/7F8rhYg8A01eJAPWg7nFZl2n+tc3XzPELAdW/A2i+3s32ZhNuAcqXrt0FGPZIN5FCx+HEUZXOAnTbGhSQ6h51mMg52ZFJt5eIeHpp5CSwyIalmyeXTgyrlYoAVqwTA9TFDwD5sFsDgN8PAWDaXkLAfbgUA8D42iOVw24NAG7CIaBqei0GuEWGAOOpx4DqHgqcuHFSM8RsHyc1Q47fAgzbfORwDHePWS+NcbAqSVWOefIfQM0sgEaw2PZeAN+tFCPb0VXZGgNjlTu6amEKynDs6KqFKShysqOrFqbosKw7umrvQJnXmTUZvAH0F7LWrS4ABRF2sHQagL7DbZbAwDjftHTzBsBeWgCN6IaA4e9AANdLA2MCO5Tpf4G+Qz0E1Si3O5uS5+ZAS2ABNJI4MCC1AGprDEwRzm5+3EAlMC17vCOJdIC6femOXS12KLMogNIJ639LAm+HT+kdhimBjopsr4mc6YYc3Wlkoeen/AigX7phEGEa63FH1vmR1PHj7kbTcrv7DPIq6XngDMe0JOTkgu4NaAqg7PG0EqidaaJV8iBC5iM6LQ/EFRYHQMIU4TMS8wZAsZlnJOYVcCF14QigDPjTGX4ABgfKD4CBmdenb/sGQLVlT9vlFdCxOdg0L2ubjbxKYpENLs/dgKoASrpswPutsc33ACA8gZtV5dRY5fZZ+DtIvHUB8H6wHMpy1Ig8twGyrFf0Dkqj5zYxT+/5FTCQR/bMNrwBEI/s6V68Ajpm8Z8OzCugPTbLhwDhL1VMcx4ATGKcRizYJRm8rArImNs9AgI1o4CEIa8D4ApX6T2ghYpMAQPdsgOgh19aAI2dJgcULvN1wI0RrAOAa8sOgCs6ogKonBc9ALiR6AHQMVa5Ae/vh9owBLwB0o6kYpZmA6R/DFccbYA15Am+tNQ01YRxvjnV9q5XZGBJlmZzpoJHkqZRI7JmJCC1Ga+8rAqoHEQ4AQJ1r4ASnQcF3JEiU0DGMPYBkCJFpoCLYwIGuCfyZg6AgbThA6Bjjd8B0L4KqNhR8gAoHHVwwB35QArgMtwD4GJf1ACZ0wkHQBATcECLrEoF1MgHEq2xm8ew9hZmTr4x0+SaL3MN+AbIO6Tow8n9kK/oL4hVmThA+4xBvwLCS1GM9V2ozn9BsjSpRf60+HGpRS8t6eYUGrrC8kpcGuNhinRHwRyJ3e/mExwI0cbfGckRO5gjgITVnM9Q5ivgerhRHwGk99xEdp5HvLj10A6piRfHt/rQ0E9nndStlxOSBXcQUSxQ9qStfrByHqErs6OyPuqah6ts1HcNmHBx1bQqIK5xm01LaW/W2E3TIDdbns163XISpGq++OZQetX1v5GeupnQKo9eWNHeizfb8kYYudkivK0XM7aKmVnphDe7CklpDZltYO/N/Qiqn+WNl8px1Z0KtN9neQnRZzzvY2gHikC+q+8VyFuLmFA+f0m+KtcgkC/W+z6S197uLH9rVC6Qz0ogDOST5mxCeQlRB/LGvONWtN3NP271ZlZHxqxwt3LCjI74rn+UXvZIF3jGG5/ylPfrps8z89uqUlA5dLerXMXIwu+1K3tltgSONujWazLh/bhjmWJLo6HbjSCeMAG++w7p85A91pMmCBO6if1S/ZCYHG6hosTccGPbJqbzdpv1wqzqpvcvl7ktedH/Ce/TZmTHQL6Yq8Tyt9qTgXzW8xLK31/6fWO/hfLpS/KXpkBCeeERsHy1FEsof+l+Rvmh6Y9Q3n4/qI+q+r2w+q9pUWXiVrFNS2AutMdq1fN7YevdHZpWeWx1a1VzXNdab3WyL2Tg7c7vReVBP+zAdxd5ym5V6zV0cWVX0vN+YblPtdkqF6aF6qXpiFBeyHoX+rPFerkG8kPpVaG83L+BvNkzofyl+wHlrSVRIG8k1EDe/MdQ3vcDyd9+3oMeNVXXk1pJl6TsUG59XC6ND3Ar+z2pZag8N0eauv5kjy15sW9Z/9zW6/nC3MOerKP7n7qu7LyBrg/xWe6iAeyLW7sf9CfZw/et/giPjrqzltBcWIF/m37jUSP3pfGfhOH3PJVWmHA/e+9sJlHlrhVA3AllTxpT/5HiM89JZm/8KeqjWN2fJf2QrfNvRj5htmrSoAupzSrg0UX7z1t8gzpTJvWnbrSvsvlHnDDd213jk+RPZdufN/rXyXL1N+q3ZExFJmbtbrz6++TPJuuYdPOoLOtYHIzOaWqf3NhjNlWbNcWdrKuS6QqPbimaCyuYCku3zcpCNuCeVJpFHkcFZc3+FczPp6z+LFNjU1J/P5T/2u9fGg8J5SWeGVB7bTQYh+c1GhWJJ3t4nLOgc75Q1w517QoX3iifl8UtcBKJi51X0A/pqsZZ3MoF+GGapot5IZvNz+POLJoEjcRNg9CeKYd1R/Fiz072kY3+C8RNm7G473e6zA9fle7Cw1fFX7dMI30mqzfnPWPt00swgsrSpDzx7FJxusVtgHfBebUWM6vBeG0pp2Oep81CacFwQO1fGMxClPhLD0Y5ivvPNT12e3TMRl7WZBw7WlpTHR7DdOlV2dG08Z65wRBubSkaTKw3HgSPiDRx4mgfHoa8BgsydQxCHBaSbKDLGrsjx+Wyjp1okV3WiDuY5WkbODhNejwoPHk6fF/7dQomWPu8jn0SL+v3iqn3y7pQY5/HS++m8PDZ0cZfv0xx4EJe+uw8oF7HhyB99HT4cN2/Ki7T0oL9LgvJhCX7TBXzk7ZnajDp1qwl8nYvDR6wlWqxSB77fT0iEZ90RXVluEt70sr/O5ip2U0cbTELG9Cvm+nGXroZhixuZmckXr8mbhEhEjeDnFfGzH0WN2ciEm9f+armCEXi/lVxzKJ/VaIq2BT3QLzas4MmMPeWf92c50hcXHNeGXP8A5LjYb9jjMMokbRnLCQSRNTMZg7l21eOn0eMQvlq+4bkLeIVKEqLqPHq74idbUyaRmYRQZ4HlYpeUjdWv6eqdhM3EE7WPeLGUhSfancjgyx13z9k+ydrhHWz5z0ODFyKgFq7mRsLxZKVS9x467vdGmQYLu06F0xRs+ntGfdDtj4wzBDcGRVjCAYZG2Xw0ffKNkIk4/rvC1efB4dvG6MkR+PTJIOReOxdsxqJMOOnjCRq5JCtrxsz7PJUh5OH/d62P4MMrdmlQQbb+jRe2ANuZ4xVnhgBp4w07be7qFnCDIhTRp2ilqeMPcofGAE4km0oY+7C83JiNFCbzM2YUHliXJ4YGZQxOzE+qDztxCght+nEWMGpGQdGDOmHE+MG5Q+MHpQ/MIZQ/sBICuSN8YTyB0ZVIG+MLZQ/MMKQgXhgnAXyTfUbyh8Yc1R0fWLkUUjixPhDhqY5xxczQG/fP8SArreGJXiUyGZc6u/TffRsNvA5fVvrFxmUTStsLuzJXo3xzQyvzag1him54MbYvdC+ckbwhZF2ZxyH8va9SN4Z06H8137fGN+hvOkrlDfGeig/zZ4heWPcB/LG6A/krWIgkLeKBGYIesUDMwS9ooIZ2W34+SUGULN6dWaIdwvSXpj87Ekrfi70p3rWJF9Ce6PfGkRLaP9062GZuG25dcrl4WrdGlImbgNt0wyDiiILGiasoN0VXeqPYAVVV/+Rx0LtijSteKP7sQ8dwB1UmNn4r4z5j12xp/4pJRHG5QxKuu9OFYf0vU4VjSh/qJhE+UNFJsofKj4DeasoRflDxSrKHypiA3mLn6D8oaIX5Q8Vw5TSPVUkB/JW8YwtdA8V1Sh/qNgO5Ie9b1Bxbs9DFflW0Z65w8St913mVjxFE28Z799d8a/vix0LqsYTuGJ4GuM1qLC3MTE33nd7KtlX4p/TRnwFrVEPeaCgw0RWilvQwUK+F3MLdwcO5ZVhd00bWVO540jXeG8Nuwq/X88WdjTRDiXYi2ro/dK5Q8lQe3twx4ih8dug0fmw2RysT4bZVxyAmzYPPSVuZ2SDWVPYGktbAQVn0toDp+AQWJfZFPYD0zr1oOuyt2Rq/J296VNDw+856uMV0PlLey35wFDEbo1ljatowNXuB+atsYImaKKsOfq+AKqtOZ2xAd5AjL+D8BmCFmXpMoJQ0AXthOBGaycE93I7Ibhd3AERdKQ7IfhknxBc4HNC8FE9Ibg74AnBSv+EYM7ZCcFtFE8I7tR4QATNIE8I7jd5QnBLyxOCi8BOCG7MeUJw788zIrhktDagR23AxXLd0+tZG0qoqfDolw3wNq+BNhTjKUXNoUVBVy4onJYO281w+ZHkzqiBATjV4dgNfYN+pPLSYctgBYT9FxUQtj0WQNxYWQFh62YFhM2hFRC2n1ZA2OBaAWELbQWETboVELYBF0DcaFwBYStzBYTN0h0QtGNXQNjwXQElmo2hgLCXp/SF7S0a4iCW5jOs+SHAW/sHgFsBQcdT8Yv2eIKgf7s4apzJ8tb+I0WTK8S120McWM1I7GcwOcpHLOxBFMGIhferNJgDPqdOIBw1chEk3huP61BAOBBEHykcOSIhpnioia7SiBpcC4kjHsyi05nC0S/ypePhMgrg1mJHQHAedHZS5tlJ9uEWIHgHHfcXtOucmvxYgOBi1yHSJZwVY9OZgtb+OjQ3nEajY9srVkvueI28Q+PtPWzkecMuDM9Jem8AqIyHfekeDb3SMaRcYbfDfvYXsHOqdTKeQavkbpO+AmumKzNrx/YYIFSHGUxnajYeefAd1+xMD8wmH0floZd1GsaH3+E07g/30mmgIPagPo0sDAA+FDEA+NhFBJwGOwaA/LVVyoftjUUXWXkDG0DnwVrJPOO+HwF8HCyOaEuHked4oVwaIZ08I31etqwT2QbD+mtNvtiHWTPPq/4jwGUAnLI7DlOnyebbI23tO5BFNroNOmVTehjne05sc7MH/yYFYF9qY1k8gy8fAXx4MRWzH8cjBwBfVgScRjwHAB8ijYDTmOoA4IOwEXAatR0ADh+OAT4uHAGngeQBwJUAAk5D1UlVHse2BwBXAsjiMud1A4hGZBm0Z2zxDDCe25zcytsSpXNiOqK7RTa5+Xe3K2siF6G3w5VFqtLJXBtAL91Ow+2J7lbNEggBahlPJqQVcweCdyg2ajsE6GTUAGBTGmKA36IBQL2sAJA1RhYtaz6cafxwVhg0J3aj6FazHgP8fkDApd0SY0Dx80Avba0dAkCbpxNHRdo+KZi/tLdYnxPTvQvgl2IA0GHeExOYzTg0McB1KymyzYK2v0DBnAVo9g6U7mzGq4oA9aCMA6a4W2RI/a5aGjInc7/r4dpFQDlojQCg7J4Q4GeaQo8LcHgH2hr34R2oonYB3I8jS6DdNqt+Ys13uzW3G7gDzYrWA/NnV024gUUnLmsU7k0G+oxIapJ9AuHrRIZoO+nvAOBXO9mV7TpZ31RuZImd4FtXD9FO5E3VcTLiqMLKKo6ekeqPAG7PULSydp1asyMb9A5WBPucVXcGNHPBBzYO2mViFjDCuriqXITJ7awWQIiNmzpKlWvl8BcybY1yiBrjshYlHu75ajweQa2NhtXXC6BGXEMe1y5nlM1XUdHsesmpACyos4KHWaOZCnoeKtICazokRSicswBq9XFSpFpR9eS+v/WyQDbToBdAT9yNF+8CaMDo5tb+0yLfN1Ibi02FnhkfqXhGjqlbm34ky8rjn/bQ6EsBwUurqXvh/VBs6ucCEK9l11dbKhXfYagyXgDK05ShR3QMvLIWQMLMg5XxBliGmpTAEUB5yyMAN58DGpITN8DS8ok/nPIpavgXbgVQZrTYxT4K0iUXQFqjDZ70vgHS0vTGarUNkHdg6nuxCbKD6+GK9fsZiRu2DY2SLQDOHBnaBnNwCemmRRoAp6ZYT4/OocHSNczcJ9K2StcIUx8Y2Shd/d0+MDlVbPJs75iWL9YIanOk+JEkHdwbxkNL00jfAhAxbAGUI9WQWVms2Uuv6HAUmz+7A54EqMqh7ZU/XFVl3Ctv76rhnB1SJd1arb9uRd5jsZY7nQ2sYj2eOpOqNp3aHonqLsqtl2LnTqLFMkG9cKNHm3zzDDyfAdlOXMEwQrFOIr3wXkoHoiSFpIr1FlsAvLKsx2kvWM25+fy2rJQOLt4Lmlur31Nv0c71L7dlgjpXCN5WQNaDtvlDe4ZGgK4ufgyoXwWIix8BmkaNY4D2nuYG/XfVxogxoNqXDgDJAdRLq6iH0pkdehe74wpaxvdtqrJE7c/8L+BEtHz4cDgSLas1EyiBOxmXufBQtKS+aKCX7kuLMjaAltUSzjHAtwYB8lTO4AZQH0bjbvaC4f5srmUEGErQiwHaCT8AWJ4mBrhuRUA77CXaGtnSLnvzUb9E6/e4ATxSrdjmI0JStixKZ7csFzPhCk+ds6RI57FP3uS6c+/y55iwNwAcPGeDqzr3tc2W43h2yjkDsjrgC0CFlLtxi/0FnCiTTM3cGNz06XCdmyl4T/gezKuzhHMP2r16t38OqiVLOPfMdZ1TUyILQCcuGb268xDA3dLXAVTCPDRsFwG6Jo42AL50emVfvwXQKlmbig2g0mLrMxMDJPoTA/RiD96hKiEpWqVq1n3wHardQNytJRWzvTNq72QDK6PNV8wS4IYwyRrIROfh1iRkDFCbLwToQBFu+pzcSAwB1TcfPZKldWKAzjsKvkM6fQcGHA4Qt55X9zjYS0l7YUbb+9JcVnSALrsUgzN9Hd4B+7dfFoXLaM1M5UluphjOI9A7NAcjHTUgwA3dLG6/C1iJgG5jihJGWbpWV/SEqYquSayecP6Ue+rcYsQy5f3CPLZRPDsX0rnBzSPjm1nDF2dbdT3bxAKaqizBxsyuqgykNjFIXPXAtIkx4qoZ8k24oyC0Tgxug5Oaup/bwEr6osZU65i8Lvp9G8+Lsvuy8bS2W1Xckk84n0eco83loxiM1l48qXwfyCf7fZ47Oe336TxmjTy3ivvB+t0teRwYoFV2Sx5dO41Tt8J3kprKLRjRa98rGCGtt3ALOuoo+65xhjHZ/s8YcU7qcbUczO2S9GJLSANKmlhY8pTlTcoPa6yfk8ZdGzfoT+q4V9afVi1SuclL0gxY5ZJL6ye55HFgjJ7fTV/D/SY2WeVRl0ldlMoDIK3fdW2YEklqX9WGRLWk92llflRSe6ly9i6pfqiFu2ipr1GjKXoSiqo8wOnShGjlAULXoeMPJe4uvX+XPI/Llaq1PRGAh/dWlafzeCkbp16o/80DKFzNeGmUuEyM7F0a+dj8CJSXVNSmFuD66+8zyfHS+6I0tD9tHkSpwVRTiXzu/DfLS5cs5vrZ913y/L5iP+yJJ/z7sh+44eyl0bnC953NqyoJ9f9lA88vTFjZebyj/SxBqpu5x5ZLugeSm63Y8Zls/Zz+ubk34qWklT1RCJ9f7Oe7BvrN5cl/P8kTEchC2jfbk5fNvwvHqIo8D7Sz+2J3aOTfl/2Qg0nZUkl0Z2Rxu3yK1kfkeUDXSZ73v/aj5qaotj55BAOBZf2fozs/9333hDVeT+mgWoNZzOK/bI8en1/0yXOG60fyWeXZfpCM//aIcX+K/t+pNv59eV/OGNl9lzMmvcx+2B4Zfi+xB54a8tPyRHU0+cQNoy/lwKYRDOeWeFEagf2m8y86MjpcnnsJneQDe0zKsGqg31ye9ZvEKxKz0k7yFO+6NNOQovMi/n7ixpE2jyNxSvay+Sk5GGEu8YHEA04ua7zNJQiXzo9IV2APSLwoXRifv6yGAhNu3lEmsCaz0L8xuHFponcEtozEBkbwqvbrrGlzVnE8WBIIGdj88NI8xAjU4K0LSd287KsODMJa1ij6deE6Rc+ulH6MUNgJH5hAMQXCzXBD8fUPv/74x09//stff/7HP37/47fvf//29v//9ftv3/722/d//vKX1//0+08//vpt/dv/Ag==);lineShape=1;" parent="1" vertex="1">
                    <mxGeometry x="641.1181143621541" y="28.264710860732862" width="512.4407235328579" height="260.79983670380625" as="geometry"/>
                </mxCell>
                <mxCell id="90" value="" style="shape=stencil(lZ3ZkiQ3jkW/pl7DuC/PPTP/ITOVWrLWqGQl9Sx/P+SoIyMDl3EQ/qYFN8PdSYJYLoAv+W9//PzD71+/pPDHn9+//ePrf//y458/f8n/9iWlX377+ev3X/5c//Ql//uX/Lefvn3/+vfv3/75249//fvvP2zJ/U//+e2/9l/4n79w8VbmBqXwv//6D/VW6///l//4S/7XX357ls/P8u02M8nn+Cw/7r/4Qj4Z+XmrKB/Dk3wKt9Fey4fb7M/y6RYHyY/yLJ9vNZB8N89Tbh2fp5rnqbeZSL60Z/n1/eH7hFs2f7978s/fP43bjCSf6rP8vA3YD8Gub15frJN8fH7+HG8dv098fp6cbg3f18rnW8P9EJ/3Qy63xs9v5Kv3PEa+3Tp+Tyvfve9p5Mdt4Ppa+Xk/Ee/Jl3WCrrxviRfl022AvlL5fO17loL6R+XrLV+Sb7fI+1nk+5X9Wfots3y18pPX9/k8lqXP+ftPKz9xfxr9UOb9xnkln6384L//rD/r0nion9O08gO/Z07P8uvGxPOVq5Wf+Dz/Ws0P+XSrfF+Y58m3gPuzVCvP+rCY5yn3L/DqvgtWfuL+qeb5l/7kv/+8H2rznuf5vNR+C/w8Is/3nZUft4b7wcpP5/wa+fZxot+Wd76/kffuXyufHHvJyuf7CX1Tvtzile/ZqrP/rfzSz5eep98tojflh3NfWPl5bf/04NyPVn7Zw1f2c8+3fEm+OPrcyldHv1n55tzXVr57+sTIj7vF/qb8RH9H5MeHxf6mfLzfgG/Kp1u49PeTc99Z+XVfXNlvo1x833V+0T5Reba36/N9N9Z9wfqqW3m2h+uz/TC6c15atvIdn789379jOPuhZyvfUL918/enox9GtvKV/evnvz/DLaB+m8XKkz6J97/2SZ7285J/tg/nRwTjVfwhWnnyL6K1n2e6W+yv4iHZyleUN/77kif//cM6/ZDPuP+jtd+WPJ2veL+tPuQLnt9o9+eSJ/s53q39T/Id9M/Sfs/25KyoDz+iQ5/kyV9I9//7SZ70Ybqfjk/yZP8ne75mQ3vpw9r/JF9R3sSLljzFB7LVP7PfT9AL+TmtfIL9U6w/teQrPE+5f+1P8h32c7HxwCVP9lKV88XxtHrXrh/yA+3VJvqK9XmT/TZwf7ZbL1ae7Kt+t34/yVO8a1lTwcrT/hmibwfu/2Hv9zlvAfT5vHtzn+QjrNeU8zhZH0oAZQPgAy1AjxZQ6BfWFSCPhCrxI4L2GUB3UhKlPu9h5jMgy66Y6OUtwJCXrvRIxcYhNoA+a72H0T4BGj1SvQ0F0M3UbGhhA+iRlmaTz4p3ZT8sHAKGtV4XgLRdnLckL+0AprwDAbbBK1sDAfHwlRyA7iUEpLuH/T5gXnuHbKNUHqCI2nMBVq86gHo3098H2JvTATQxZV1Au7YOpwPkAFS3ImDYcLMPsPenA5g24OwDrm3vLCFkH3BQM3CH5miDyBsARtICWC9tYpQlJ5vWnOw2LsDU+4EeKdvE9QaQYZvFs5j3WPcZoKbqAsCFsgD90j2d1fic95V5BRiyDgho4g46gC7+lAto1x5pHVFdBwYczB8CTJvDcAAl3ILsJQdQL71D0TCEC9AbyAHMay+d7pv5fcC1dSj5oMgcwLXtXco99vY+QJUxAupB3TsA60A7gGYZLz7g4tZoB+2NgH5aOHK6+z1G86bTVIZNa28AqMpysozJjyvLUZTPSoGVMi1zagPokaaEGtgVrZJb3QB4pAXQM03BxRrvV+BnAHylmg56icJ5C9DM5uP8f82y0uPugrwC2AtlYEa2FrGMF4B+oUgMc2BMvlYJujm/UCXqMJDFUFUJcNiknmxvitPVflCVuPmGRK7m/eZ+BbChXj7T9XhPw2dtQg7ZADASWzwoAcre7WS4PBLFNXY2XM1Q+Eo7Ha6mNL10vvMx34xrtGJTTk5co53MUApTNA1quoB+yfFrXcKgDmAcVtoBXHOP21XHbwE0IEWAHi7GNbomzxxAPJw4BGh6xQXUa++QJSHjAtRIREA5hJgpRdrrwUOhI9rbYfOR1liAg6dIUfh+ONOkKvu4/703lXGflhi31T3o1hEkUzqReb0AUwH0C/FgSpP5M9IhyEx33MiHkBe+Q5Z03UcE9gwoh3XAz1oPn5Xs1gXoopfonh7tEP1BQBfzxwWoO0Cm9BiWBemtwzENRGmpebiBAizcXMr4kt06g0SwBjK3p7r4437Kz4B0z4x9ApDWWAA1pYk8OVUZj/sJeQVo3QKI7jHVWO9Y37EANtTSkRCw8/+S0SXzZwFsIKQj5WxqFK6jut8p/WQBuHBNsgMd1f0C2AzHhw9/BvRD3pvO9OMjfgLQEZ1qkTETd+9N80iNT9yQr9Tu+YJXAEtOahgC3kolWQC+9JSYccV0+dSoQ8XYzJwHAs7kR7Kar2AyeAPMSmekWE01dDOq+znlACUksWyA0a0RqyYOAKZFHwEUOZnzQIxztoYJPW5mn7MOhqrXMeS1Acp95HXozwu3jAnUGlPYicXdreaRMnrsG2A+a8Kki56HZTZ6gOfzMIL3DsalWbYyUbwPAHelLYBJV/oO3VUzJmy3vSJn4Z7XYfldZOjqSveIIa+HE/YBCHwpyuZrHNxUzdc61m5uwPNeas1baXOAdjUCfyULyHxlKSC52vt54Vq8R5xeAqSCJFxSMzvy57yDqdFyzB/RfLvoh39hmCqkelEZ1+ItnFH3NWEIWC+UHZy/dMfVDxfkJeD5sxaO3R8AnR0OBTR2BxRQMDB4ALhqxpgOJXpn2myNEtxr9/mR8mCHQ9RMdu9po1tz806cSX5lJkU/wuIfgIxR6Udw6AOQMIG3HXpT9811K9vdfr7jcmDi5rDJr8ShlkeK5QMw+AANu9LJ0UvDLtymQNFeGtbFTxUzTduhN+X6Ben+D4f+EwCVwLA5lJQxqLYjAKYjQGJPcdwf4AMQPV/URE52FSo9UrcrvZtK0Dp0qwTiB+/rFcBciguA90O3+bjYkbe9Ac8vHRuf6W4N3QXAA9StVRm5dGoDugWg6dCtXoqFL8VuQ/GbF+wAogVgfKnbeGvMyFTbgGwBib+SiVXGhBlwDbUsALHtdiQmWwCaP93m2GPEIoYdiYkWQDmUXTTSLQCdJslPx4gB2h2JMYDAqlKCagtAud1diJMtAK+sKifOsYyr5Kc5AlwkcIJ5piVvs6KsJ5XyyPEALRZiUylJHOduFbySzyYUxeZklEgUJoyWvGlew/miGQ5/n+X1+SkfpUElT96yNT15G2JleQ2YevKWr83ycs268jbh7cnb0D7LN8nxe/Lp0vNUSfl48pY85clf229FivE8eUsi8uRtms6Ttwkrls/CvvHkbXLVTffKesGNsUvl7X5LcOkd8s+c603WUmb9PKLkwlD/L3mbJUUvcEhzlomBnT4l64RMvUfc9CFPvYn6sN9/X8DwQbs4N7ucj6geUmDi2AQLYOhbGwCRpt7sno4Bc7C9WY8uckejHfptFkBlBwtgTd7AdBVJqcaAgaMuDMsYsIq+i6aIXNbfsy0wWfYlOWhdCq23QUqfNdnLL3LngB7FueFWUV16JcSIFuwCWJM3MtlQAkcLQK5HG/YGiRFLiRagymdFKuCwtRaO69HUK3UBUV4aAc2GzH1AlpVGQLVUcR/Qrv6C1Rou4OI6FAmJuIByFXBx4YQK6AOqnGkHEEXNICBZl84HXHykk15CQLw3IH0f0HS3Uo8DqSeM3FSsaVfYiMGvJm1fYsSEZwuWYblDIgyw0bKEjQgWoEhYhywBZa/HxNzyYM23yDmnOm2FVuTmgFVyfwtA8bg6bTX4AtDC1Slbo3BFyrTk21jQyK2SWIjcobcOy0ONFVdaCxsi9wRdAHumK564KjWRsXJVjRRnOMHg2uUdGlqVO0VbLIBaQlS9dht2tqtN7NaGtsYCWEuAe+kugP2sDQNyVUOEzSv00aD8AM23AGkIgKubpnwlB2BNBxdg49MOIF99pGzzZj4gXwUEeWks6UqWxODtpWRLJ/Zupb2URN03jO7WKLZ3w9ZgC2C1d8P8ZdXm8I3Vvd7TTMTYFYuyNSgEUqV7zgbwL9gED3MSql67DaNKWtcZG15ZRTg6C0A9yIoUvm0AP5IqssC1qdZ0cABD7FYXYC2Bhg54EXqvDzi8A7UK6zacH5lXsQB6HhyAdQf4ni5NPmvFkNcCmBDiBtAjNfHjKhLqS5WFq6hbF8CuA5MYdod1eSQyEos0kdsA2hpZDhAbWEU6ADm58N0dQSwyBxBkpel+KNJJMVas61yApL9A50F6d+5ZIPRI0ix8A+iRgk1ALQCxE/M8bA3iGWVVZJX7I44DiYGogAsQ5R1I3WdlblRUlQtgb9GCxd25CV2l4BCFrFqjoBJYAFOGswHU20ZqXnzAgRsCZzpL1WUsqGayZLsis+I2aS4JgB5Jivci0xkXwB5RniayAPYAFVQCOUtco6AS2MS/cRGQ9aUZYC9FB6DKmGdyZDXWCyqynA48I1Jkm+0oC0fe7gJo1AE1XzwcIOxiFG2yfgGIzpij7dqyAETfyjJracdm6B2C5TPEgpGTBTAJ75iRmLQAJVgAaj6ZRxIzaw29srjhcRLmd8yY/EpTwqcZHb80heSWkc6408RVAPxIpq4z8tSrNMWayehapiHBnIxhuwWwBDEOPSYNqmWklSZ1ODIGaHfvWnmkxO0JLSsu4/Cf1A/ngQp9FsAq44w+0O7va75S4v7TTc50woFlm/KcBMBtIpUwSWdaG1F6v6DpNRdg3TLuqp6EueMDbH464ZW1AFYJJLQqtb9njNgAMVVbpxAj0lmSdBaIPPsr1QNfAxVZlc0XMFy0AZYhhJu1Ss8JtDSSBICZwZOq7cAycHriSd7ZFSKPGknkO8av9X07umP6PRuW1ep6Nb6oZENw6E0PcuW7uVrzuWLaZMubciNMIKRqb7XC0wWqjYwX79Cb4A1Pv9tqyFTdYPntljdlPci4TcJQdC6PalV7wpRPEuZRQmpTKjLeE6PJSXplRQzP7eU0JgLvtyLMfGT4rc9tzSg0sJN4dzwtNWXbxCqw8ZvseXcUerIMQqaiJXGjmOuWor30An9PSWAw+S4JIzxgviNJlxiWj9Pq54A2bJw2mhV4tsC05BCuiYjD6tvA03mH1ScBmSFx2G5GPL0sdhuiCdjcImptDU4z2mlEe36pli02CTTzqIYmPEaeviz3BVNzotK8MKgWNUbG052FEZ7QP4lFxhGjfbLjBabUD89jzDY9yPr/4UM+5HG6kozT4dKsZZMbNm/CkGMURjg7JlH0YebpSpICzmjPbIKpqVVG/RmFQc5hgM0LNuOdsfouyvjWzNXc9nrPaG4I+ahwByIbGipoPAx79xac7Cl1tIVJ12p5kqUkDTML8uOkzXtBu6fZZa2oFprVymxlixNSsQJTMgsOG8t+94qhryLdLTB4V2TeLxrkQp2peB9mGwPm/HS29UvMdMg2dczkDqmGYbZJsv1dGmY2xHJkIlWyDKHOjpwNE/OU0I+Zmg+3G90ge5q4L5+06ucG1zp8A0tUokz44alGh+oRcrmjhM4Chp2iJKwC6uwouZ7I87ckqRcx5BHF4nJMFonmJ55DdZCnAKzKZ0zznOQpianyBTnB0R7byAN+o0RGWR2faA98WGz+kjkJUfLOFSfPSMt8h1URT8QQ3A+22IpJGGKhxeqcLxtdr8562YwC93w7/X0iYESJkPDlr7UDFXMoUQLrzN6WAaeRB4RqFRcPGJeazFjZBZW0rvd99Hyhy3o6j6x/9Dzy+ZL1pU5y8UA34/1f5fmd8yX70zm/sr6sH2yZR+VJh6fzyOdFzyM+j8qTtXxd3r5vcfS51W/e/aL9Vvj+Unl0WWV9E4c8hDqVOGQj+t8b+Gw5plwbpfs/Outlz1dAYpaeX25/GSVCzgO9xX5w5nzKhD9He3abD8P4ozU+hzMM20RDO2a3og2Oczs94fdzi2aZVN04tG8zMc2ZU12s70edkGWstecqduv7sf80rd9KW0ySGJ4TXW3wAscpWneroj6QEWRsfhVbh1VxR8rUz4rOSrX0WrZdJJtbkJ0l7VGYlSrdV7gur2v0jeIF3WZeCprJklhwg3U2L0tUOplOxrw4aW2YucmfBm2xU5yN0/gxWNP7kQ2WYAvMMsfwo42OZCRkR7FYMubEo1whTC+KMvPMj+EnI48GqSi/hDn3nYOwORR0yLK1MBPuzQe/8SGPV2yx65WwTidKCDRyjqNIhAH1QtQKSL5mq1VTkR2Uqs+DOdYmJQnIEYpKzsdOeFF67QWsMdpjyYUDQN9HWlUyByAKLTKwgSyjhwLnTIcl2AY2eKeN5XIj2Sg1606A85CjpxzciQNAQfoTxwDlDxwGpICKBR7w/G51YDkDlCVLQq4PTHpN+j0pfr2vE/s8yAmR6mLuZpRkoB73JtpXv5UnTsKStx4fBsySNlbh5y+26xzPwtg2pL2PHI6ZbSmM53EbvPY+cjiNzf59h1Vq+2szp6vaHL1DjpfSpsyOVrUJFrYNk3QJLOyZyXTFivdFkvuoMkdLOCpch7t9N8n78fObhGtz6d7Pz9OZ09U0l4f7v1lOlMOhPcgjZ/gg7zDuzfNP5qQJHX4yZ7IJ59BR6LLAkVlme8NIzInaaeuW3k6BwzOWLCASCYVoHCPWAW2AFEog1VLNRIeLeioyIMfqWMaAQZlToQTR/VKT5IwL0LoHLBzSRtEJre+dt9dfoN166r9NAfwdlZOIMGUIdtRPtgZSFyRasH1A+oUhLlNiXvmQrFRCI/8RF/0M4OIny4x0qNxTWq44lUYyMmJ7vlyEdih+onWY8pW4/1WS0R2RhyEkmVcSmXCXtYdXxvTdAtgGoxkjVTlIwiPjmd5FmfJIFNDI2qeSSyZzlPPAtL6sSbPM1eWalciY5clKcylMpRKvKHJpRhZG0gbQSyfJ3HDmLCfpb1IwkpOTXChOge+plBu396lYnIyrXY4uddNkzS+A9kIg9zFL+GoD6ACJf7cjWqD5dlsAKanHJhYS9N+cGnrpemgLQDZ31rZiBU2HrF1gOH5+bACBJfWnFhMOwDI7CloCu02GpKqxj0A/tWeg89APZCikd0q9gzMRJQuJeANo4abY3k4zEe0BzOTdEsRYr6g1jm1j6IiWIHuJOS0lyhHltNmxuQ6x6o7te+hMHxsEEU/i2IIIAacmR+SWHdsokZop5cB1IjVzbAVFaubYbIrUTGliVTrpV9UazOc5tuTCNkqnpl+UgDi0FasY8Tk0LnNaQWlrNOeRtBeCC9CFcwCHzwq3aFFF5vzClDvO+UrzQP0jdV+0Ha7TVmzaRG6sGAipat1X7kgaDnuJCjtqODSrJXZEDWIkcse5Gg/vgM1qlWLbMCBVZe5PbGjo1nRoh4s8iSTv0NBIrNqm2+mfq8Z6w3DRbmEq7Q5Jtx6bpFKg+9iG1QFoN08EnFrJUvTn2KzWARweiQCnhrsOwBJ0G15Zx6bB5IDvtsTyDnTt7sbHCnBaK8tndbo92yiccx660NQbGokL0GQdKO2wAFPUDMUE6pAmR3yhLIBS7fEryfwsh0u+O4eLdY/t0sehNZrT/dwuXEGq3aG/euaO1fNAwMXdKsPJ3+hCL5F1vBQlQ+9E1ls4BJmJg9TCYZwGRUNbOMxBwSEL4VDn5EwD0NEsdKHsIQvS74ccjuMYBwo9HgdFOL+goyjIpTkOu3AAOk7DAejADgScRoI4gIuPdBprgoDT4BQHoKNZHIAOf0HAabyMA9AT5wB0RI4D0CE8CDiN+XEAOkgIAadRRQ5AhyEh4DRuCY+ojKz2AaqXUGtoliZibGaPvZLsMYWL9mAt+UoUxu7xoL2Jc9GFnB8jkrK6qhnu1NOzHNGAdSO9HJLyFAjp5VQJQh0JNCrN3Xe6dJOKATvO9VM/OHL8unQa8CYEnsbx4dw4Gfg30dndEwVt+TUlpvbIwmTkcV8MW9Iy0aLcMxdtxzyk1YttNdEs2TMj7fuSa7JnUko1O82klHpeZyaoBHInpu10ZufAmp+RbD5qoGE4smXjDIzv60zTgftBZ6ZyMwGdyerK54vyhl3sys9L8tJxzpU3DBZXftr9gPJSFOPKt0t/X2Yeu/L50vPIzGZHXmZCu/Ltkrw04XHly6XvIzO5WV5nfg+MQuhMcUdeZpa78vr3qRgo2RuS9cme6S76EAxMnRnP+nNmyzOaaDjN08xp0LdLXmau0/0yZezAxOjGFBrgxJzCbDqjndiw82TRkAk0m4Rb2IybTRqaM3tzSrOobezSO3dpys4uwewSyo7eI9mgVMIY0wJYt4ZDRhsgfDhUFEoz5Dq3qRHRjKnOKablJj05APPSTFSZOiWwILd6SpcyJ/V/BFB7og2QtAgFODdAhjoRGXMB7HnoWNy8AcMCiIIxNZQ9kMI9dbzjRNrtlBqtXTTDv2Ac2F2lwgBj5zitHhfAtobMSLBeAJPJ35U6DDCuQeKZNAtgdPeuFaGVHvayTQ1rK6awaFPH6Mmc0uB4YLXQAhiGkeMQzSnlvVyvNWW6ROZJ6QtgXJac+ABNq1s3LZAfyTgVm1LHv2AWLlc+otpZsvN5mJYkngdSw6Y41oV73U8hFxQekhyDzDYpGeMtJwRPODoheP7iCeH0yTggJhK/96cybd0DhhQPgIhFa1OGQlaexbwBpiqL+cO6Pyo3hprTJlNqQ97qBpjCso4MgynzpHdCk3/Btvvn2tYNeP6sLWIx3QGQsH3cAcD9hqZQ/Hcu4xqAp6qqrmkd850b8LzSbWJ4ekoLiB68lTZGU4/37/amgu2ZDT9J8nbufzuFjNUrJqo3wLQE7eym6C+4d68FTO92t+2KuBZ+TmvtDk7y6joMrkrTld4RRwYY83gUd3s/r/SO2Tm/YB6Juwup5hv+ZW0+6/DUjG3ROvGW0wtlBm6DppfcDNwo9IDgyu/DQ3GpnN5yk0dm6UrM7NpZJjxTvEcyJ2JW9v+EfjKZBjSlS/hkeuKUBhQLQCSdOWSqUOM258PGEmbne3TYVPUCON6ZTZNwNzKNVkzHeJCYzuxsYjXZfN0LrRmS/yNC8gpgc3nOxSv5yO3700pXm03aALoh6mEdKL84JWs7B+9WIYds358+q/QLmoPVcZbzwP2vp7QG3xuernYpxnt45q+i5IZjMHkw15TB9dszp18I1kueE0/cukBsp0Ou+x8y+ng6qdVhUz9z4hEdElubE0u0djJKfoG097rIrW51ADJzbnL/yFFtPMQDFBtmmhPDriNb63sDaOGEIbbXAZTANtmKACjpG0UZT7yBltlp5+A5vxAOn5XeYVvCQb4SExlM1Gjf3MSU6Ja+Pieq+y5jtB/W8iuANbAmqvuuyaOJ2bJehM0w0V7qygUM7FL3LNQkD5GUCOQibEbIQ2ibZg8RJGjuI2x3CwfRxLF+A2G5+x5iSLm9jxCelYOQ6S8uokkuyUfYnISHqDaV+XBIzgCZxjeZbNWkldcjivYKkBTg8IkFQIGRJvn5hwN9Bgiv++GivwLoO2BRgcTnHcVZh42kTCaNVdmxziVcu2X7OvdRbYcbD2s12sFUoeBOrZZaO9nlr/XwC9RYcBc7yXnAwohiS+i9X8hW10xup12zOAdsxdZk6VST+RVVRunshaO9JA3Q58R4Uz0dICxQCfYucjaflnlOTseWaas2J7Moi7CenANUJPf5iHu8AuhKY/XsyTmgTH3pB48Iq2ebUE0nhuZLO2wNB2D9RgdQD2rGASSx9RFQbGjeB9g4igMQk9EHHBaOAEk4XC5AHRwEyIgsH3Bxa0RLl/cA4XA/OIBwaeHyPOglBAjbwAeov4IAITX5ABvPcgDN8jc9gDSi8QFqhiKgCMV+cteXcrBmyCLbTY10panrS7Z8t0dO8AxINuPxiLy/AmhYBBvR6Fi6iUz4LJNcHmmZMyActjcRgrLE5DwXRXvlv4G46ADuVnzXHNlNAbr4VF3a/fkIW1npIZpMzvMRtj+lh6hXnWWdkOEiihJmXYSUVjmILHRTD6HtgXzExXDHnm9zcZdoDbGHCDqPiBFRmFRvINK1rxvFXHYRXfph+ogkxiaFO+LJnMVO/9JR1gl3PEbpvRnueLSZezPcsZsHyOWK0wdOwXGc1ykV3U4Ud8//1MuVh2gnBdDEgnBI5eDY9mCLwBxfah5sTfLu5sHUxIzDYefxOBxbtMfBlG672k0mLHX5PoMDf7IAA82hJj7UwNRyFfdjcOMbCVwOHKomTWke9OqzLyG2Fg8k1kjTwCqbIs/TsctUFuuyc+dFiRp17pgpJntHznIWr6Nxt2Nrkj2qaF7IW8/Mm39miromTzRLcr648Zh0s53e0Eh7XiqSBmSo4OTp89I5ZMnTfo6yvpnvJWsQL3keimvvvewMtbb6M+H7KlsgYRQ0yEzuiLdkkPWNmPoPYhhEtFWk+czkmT5BKCEB9bmMCBt83wUpEp1IXA/WnBsDHW4pUh9MaQnWGd5lsvj3jWs7mE0V7HkZzfv70co7z2/etyKt/yRPhHuV58Iylc/YEVPluXv9SZ7YOyofkb2s8uHa+3a2x1R+YPhf5TsSqFS+4X2t8jzkWeV5aLzK81BflecZdiofvPP1LN8m9oRV+YFEcJXvWPuj8txdT+V58KfKF0efW/mM9r/K89gQlechySofMJR4kif7WeQr+0cqP67tn9ode8CEeiqXNqh8w6RrsLWalVvrSqB19+VEfWUC5LtTKD6/8UcqF+0Ea2/vxDZ+T2NPVp5ZFiyn6tFx9pW8qeWKmGEWtt1OauPzmyYuletKZApJ4ThQsP5I4Qy5pLrKwNBXsP5aGd7fN4OKeTL3qeSQz68WNVI+5lgEifvTynPv91NZJt/XWvhJGSuVT879aOUj0tpVPlyTz0y8VPmB8QqVZ+K/yrdr3zN79raVL45/ZOWz45+a85I9f9ac38zdS4Ml9WRuISL6LTHHLdjEkdO1RihxqWNgXO6j1Bx9a/y7PdwNn8fETxKXVQfLxkxclBdsTd4e4or6x8Tr9l/geIhJ4jB/KUpP1IF89ChNiJsT/7H9YdgfidK5k+dUHOXx+S3flidtyEhzZ/ZHlNQeTyOJ0mjRldd5Kiwv8yY43qhDOfj7HEad4PfXqQhUcXSS5/jhQR7jpZ78+offf/jz57/+5adffv31jz+/f/vH18///6dv37/+/fu3f/7248d/+uPnH37/uv7t/wA=);lineShape=1;" parent="1" vertex="1">
                    <mxGeometry x="241.50005239422126" y="457.42606104919037" width="702.1613088557046" height="330.41213476970665" as="geometry"/>
                </mxCell>
            </root>
        </mxGraphModel>
    </diagram>
</mxfile>